<svg width="50" height="50" viewBox="0 0 50 50" fill="none" xmlns="http://www.w3.org/2000/svg">
<rect opacity="0.15" width="50" height="50" rx="12" fill="#706FE5"/>
<path fill-rule="evenodd" clip-rule="evenodd" d="M27.6111 30.28L28.3791 34.12H29.8001C30.0652 34.12 30.2801 34.3349 30.2801 34.6C30.2801 34.8651 30.0652 35.08 29.8001 35.08H20.2001C19.935 35.08 19.7201 34.8651 19.7201 34.6C19.7201 34.3349 19.935 34.12 20.2001 34.12H21.8321L22.6001 30.28H18.2801C16.5874 30.28 15.187 29.0283 14.9541 27.4H35.046C34.8131 29.0283 33.4128 30.28 31.7201 30.28H27.6111Z" fill="#2E3E5C"/>
<path d="M14.92 26.44V16.36C14.92 15.5647 15.5648 14.92 16.36 14.92H33.64C34.4353 14.92 35.08 15.5647 35.08 16.36V26.44H14.92Z" fill="#706FE5"/>
</svg>
