<?xml version="1.0" encoding="UTF-8"?>
<svg fill="none" viewBox="0 0 1066 1066" xmlns="http://www.w3.org/2000/svg">
<style></style>
<path class="logo" d="m594 137.5c-22-4-34.5-4-52-4.5v190.34c54.5 0 91.5 4.155 155.5 16.155-33.5-135.5-86-190.5-103.5-202z"/>
<path class="logo" d="m523 133c-23.5 0-45 2.5-51.5 4-70 59.5-95 174.5-104 203 20-3.5 55.5-14 155.5-17.5v-189.5z"/>
<path class="logo" d="m523.5 925c-23.5 0-53-3.5-59.5-5-65-61.5-89-173.5-97-201.5 20 3.5 56.5 13.5 156.5 17v189.5z"/>
<path class="logo" d="m542 925.5c23.5 0 53-3.5 59.5-5 65-61.5 89-173.5 97-201.5-20 3.5-56.5 13.5-156.5 17v189.5z"/>
<path class="logo" d="m441 143.5c-15.5 3.5-228 45.5-295.5 294.5 18.5-16 84-67.5 202.5-93.5 6.5-21 26.5-125.5 93-201z"/>
<path class="logo" d="m440.5 914.5c-15.5-3.5-228-45.5-295.5-294.5 18.5 16 84 67.5 202.5 93.5 6.5 21 26.5 125.5 93 201z"/>
<path class="logo" d="m625 914.5c15.5-3.5 228-45.5 295.5-294.5-18.5 16-84 67.5-202.5 93.5-6.5 21-26.5 125.5-93 201z"/>
<path class="logo" d="m623 142c15.5 3.5 233 50.5 295.5 294.5-20.5-25-79.5-63.5-202.5-93.5-6.5-21-26.5-125.5-93-201z"/>
<path class="logo" d="m137 519c0-13.5 0-30.5 4-51.5 10.5-14.5 69-74.5 202-103-10.5 61-16.333 129-16.333 154.5h-189.67z"/>
<path class="logo" d="m137 538c0 13.5 0 30.5 4 51.5 10.5 14.5 69 74.5 202 103-10.5-61-16.333-129-16.333-154.5h-189.67z"/>
<path class="logo" d="m929 519.5c0-13.5-1.5-39-5.5-60-10.5-14.5-68.5-67.5-201.5-96 10.5 61 17 130.5 17 156h190z"/>
<path class="logo" d="m929 538c0 13.5-1.5 39-5.5 60-10.5 14.5-68.5 67.5-201.5 96 10.5-61 17-130.5 17-156h190z"/>
<path class="logo" d="m523.5 341.5c-90.5 2.5-144 14.5-160 18.5-13.5 64-16.5 106-18 159.5l178-0.285v-177.72z"/>
<path class="logo" d="m523 716c-90.5-2.5-144-14.5-160-18.5-13.5-64-16.5-106-18-159.5l178 0.285v177.72z"/>
<path class="logo" d="m542 716c90.5-2.5 144-14.5 160-18.5 15.5-58 18-106 18-159.5l-178 0.285v177.72z"/>
<path class="logo" d="m542 341c90.5 2.5 145 14.5 161 18.5 13.5 64 16.5 105.72 18 159.22h-179v-177.72z"/>
<path class="logo" d="m505.01 78.574c3.565-0.1973 6.266-1.1131 8.106-2.7472 1.836-1.6907 2.671-4.0355 2.505-7.0342-0.138-2.4895-0.933-4.5454-2.385-6.1677-1.395-1.6253-3.617-2.8076-6.666-3.5469l-6.987-1.6563c-4.373-1.0633-7.649-2.84-9.83-5.3299-2.184-2.5465-3.383-5.7435-3.596-9.5909-0.162-2.9422 0.256-5.6328 1.256-8.0718 1.057-2.4421 2.819-4.4409 5.287-5.9963 2.524-1.5586 5.88-2.4538 10.067-2.6856 2.546-0.1409 5.194 0.0246 7.944 0.4967 2.748 0.4154 5.543 1.1971 8.388 2.345l-2.024 6.4968c-2.782-1.0379-5.29-1.7503-7.525-2.1374-2.181-0.4468-4.262-0.6153-6.242-0.5057-3.225 0.1785-5.706 0.9968-7.441 2.455-1.682 1.3984-2.438 3.6253-2.269 6.6806 0.122 2.2067 0.819 4.0409 2.092 5.5028 1.27 1.4053 3.459 2.5043 6.567 3.297l6.988 1.6564c8.741 2.07 13.345 7.3202 13.811 15.751 0.27 4.8659-0.982 8.908-3.755 12.126-2.776 3.1616-7.418 4.9225-13.924 5.2827-2.66 0.1472-5.506-0.0074-8.539-0.4638-2.98-0.5161-6.093-1.3937-9.34-2.6328l1.944-6.4072c3.074 1.1919 5.815 2.005 8.222 2.4392 2.465 0.4312 4.913 0.5794 7.346 0.4447z"/>
<path class="logo" d="m420.91 37.731 7.529-1.3568 6.573 36.472c0.824 4.573 2.415 7.9713 4.774 10.195 2.414 2.2136 5.656 2.9535 9.728 2.2199 4.126-0.7438 6.907-2.5691 8.341-5.4762 1.433-2.9071 1.738-6.6471 0.914-11.22l-6.573-36.472 7.529-1.3568 6.573 36.472c1.196 6.6365 0.518 12.142-2.033 16.517-2.561 4.3194-7.076 7.062-13.545 8.2279-6.525 1.1758-11.742 0.187-15.65-2.9665-3.862-3.2194-6.391-8.1473-7.587-14.784l-6.573-36.472z"/>
<path class="logo" d="m378.53 110.48-17.618-55.05 16.191-5.1817c5.289-1.6926 9.59-1.641 12.901 0.1551 3.349 1.7248 5.714 4.746 7.096 9.0636l0.57 1.7811c0.759 2.3746 0.893 4.6522 0.401 6.8326-0.492 2.1805-1.591 4.1385-3.296 5.8743 3.154 0.0021 5.796 0.8223 7.927 2.4608 2.168 1.5673 3.718 3.8081 4.65 6.7225l0.57 1.781c1.417 4.4256 1.261 8.4021-0.466 11.93-1.69 3.4559-5.26 6.0569-10.711 7.8009l-18.215 5.83zm0.646-53.755-9.148 2.9276 5.57 17.405 9.148-2.9277c2.699-0.8636 4.507-2.1859 5.424-3.967 0.954-1.8523 1.043-3.9927 0.265-6.4214l-0.621-1.9429c-0.76-2.3747-2.058-4.0121-3.893-4.9123-1.798-0.9714-4.047-1.0254-6.745-0.1617zm9.667 23.234-11.172 3.5753 5.855 18.296 11.172-3.5751c2.86-0.9155 4.759-2.3263 5.696-4.2326 0.991-1.9235 1.072-4.1806 0.242-6.7711l-0.621-1.943c-0.795-2.4826-2.154-4.2193-4.077-5.2102-1.87-1.0081-4.235-1.0545-7.095-0.139z"/>
<path class="logo" d="m337.76 123.32c-0.955 1.716-2.538 3.762-4.748 6.136-2.16 2.349-5.122 4.509-8.886 6.483-4.065 2.131-7.95 3.081-11.656 2.848-3.681-0.309-7.065-1.638-10.152-3.987-3.063-2.425-5.673-5.695-7.831-9.81l-5.881-11.217c-3.368-6.424-4.407-12.31-3.115-17.657 1.314-5.4242 5.058-9.7546 11.231-12.991 2.259-1.1841 4.749-2.1699 7.471-2.9574 2.773-0.8138 5.691-1.2883 8.756-1.4233l0.852 6.7511c-5.49 0.5114-10.092 1.7406-13.806 3.6878-4.116 2.1577-6.544 5.0307-7.286 8.6189-0.718 3.5114 0.173 7.6514 2.672 12.419l5.881 11.216c2.369 4.517 5.279 7.566 8.731 9.147 3.453 1.581 7.261 1.28 11.427-0.904 1.606-0.842 3.145-1.873 4.617-3.093 1.522-1.246 2.778-2.512 3.767-3.798l-7.223-13.777-9.561 5.013-3.039-5.796 15.583-8.171 12.196 23.262z"/>
<path class="logo" d="m273.14 159.16c2.944-2.019 4.778-4.205 5.501-6.556 0.691-2.399 0.188-4.836-1.511-7.313-1.411-2.056-3.157-3.4-5.24-4.033-2.037-0.665-4.55-0.521-7.539 0.43l-6.832 2.212c-4.289 1.361-8.011 1.544-11.168 0.548-3.189-1.042-5.873-3.152-8.053-6.33-1.666-2.43-2.706-4.947-3.117-7.55-0.365-2.636 0.103-5.259 1.405-7.87 1.348-2.643 3.751-5.15 7.209-7.522 2.103-1.442 4.452-2.676 7.048-3.7 2.563-1.071 5.359-1.855 8.386-2.351l1.643 6.604c-2.916 0.557-5.43 1.25-7.541 2.08-2.096 0.75-3.962 1.687-5.597 2.808-2.664 1.828-4.359 3.815-5.085 5.962-0.711 2.068-0.202 4.364 1.529 6.888 1.25 1.822 2.799 3.028 4.645 3.616 1.815 0.542 4.257 0.345 7.325-0.592l6.832-2.212c8.545-2.769 15.206-0.672 19.982 6.291 2.756 4.018 3.785 8.123 3.086 12.313-0.731 4.144-3.784 8.058-9.158 11.744-2.196 1.507-4.709 2.853-7.538 4.037-2.815 1.106-5.931 1.973-9.35 2.599l-1.665-6.485c3.246-0.577 6.011-1.305 8.294-2.184 2.33-0.911 4.499-2.056 6.509-3.434z"/>
<path class="logo" d="m247.4 176.65 4.496 5.213-24.458 21.097-37.752-43.768 23.815-20.542 4.553 5.278-18.216 15.711 11.825 13.71 16.285-14.046 4.552 5.278-16.284 14.046 12.325 14.289 18.859-16.266z"/>
<path class="logo" d="m146.17 196.94 4.62-5.218 60.654 53.693-4.62 5.219-60.654-53.694z"/>
<path class="logo" d="m153.82 280.99c1.994-2.961 2.895-5.668 2.703-8.121-0.24-2.484-1.605-4.565-4.096-6.243-2.068-1.393-4.187-2.001-6.356-1.822-2.138 0.131-4.422 1.189-6.852 3.173l-5.539 4.57c-3.487 2.844-6.881 4.384-10.183 4.619-3.349 0.204-6.621-0.77-9.817-2.923-2.444-1.646-4.336-3.604-5.677-5.874-1.309-2.317-1.838-4.928-1.589-7.835 0.282-2.953 1.594-6.169 3.937-9.646 1.424-2.115 3.155-4.127 5.192-6.034 1.989-1.939 4.3-3.696 6.932-5.271l3.958 5.535c-2.507 1.591-4.589 3.161-6.246 4.709-1.673 1.469-3.064 3.026-4.172 4.671-1.805 2.679-2.65 5.15-2.535 7.414 0.1 2.185 1.419 4.133 3.956 5.842 1.833 1.235 3.717 1.786 5.65 1.654 1.887-0.164 4.085-1.245 6.594-3.245l5.538-4.571c6.927-5.719 13.892-6.219 20.895-1.502 4.042 2.722 6.508 6.161 7.4 10.314 0.844 4.122-0.554 8.885-4.194 14.29-1.488 2.209-3.33 4.385-5.525 6.527-2.21 2.064-4.789 4.016-7.737 5.857l-3.935-5.418c2.806-1.731 5.109-3.425 6.909-5.082 1.831-1.705 3.427-3.567 4.789-5.588z"/>
<path class="logo" d="m128.9 323.27c1.664-3.158 2.269-5.946 1.813-8.364-0.505-2.444-2.087-4.366-4.744-5.767-2.205-1.162-4.377-1.538-6.515-1.127-2.112 0.361-4.269 1.658-6.471 3.892l-5.014 5.14c-3.161 3.203-6.37 5.099-9.6271 5.689-3.3072 0.563-6.6654-0.054-10.074-1.85-2.6069-1.374-4.6989-3.117-6.2762-5.229-1.5508-2.162-2.3585-4.701-2.423-7.618-0.0382-2.966 0.9202-6.305 2.875-10.014 1.1887-2.256 2.6928-4.442 4.5123-6.558 1.7693-2.142 3.8777-4.138 6.3252-5.987l4.5304 5.078c-2.3208 1.851-4.2219 3.636-5.7033 5.353-1.5052 1.641-2.7201 3.339-3.6446 5.094-1.5058 2.857-2.0797 5.405-1.7219 7.643 0.3341 2.162 1.8548 3.956 4.5619 5.383 1.9552 1.03 3.887 1.375 5.7953 1.036 1.8582-0.366 3.9264-1.678 6.2054-3.936l5.014-5.14c6.272-6.432 13.142-7.679 20.612-3.743 4.311 2.271 7.134 5.424 8.467 9.457 1.284 4.007 0.406 8.894-2.632 14.659-1.241 2.356-2.838 4.717-4.789 7.084-1.975 2.29-4.329 4.508-7.062 6.655l-4.495-4.963c2.603-2.023 4.71-3.955 6.321-5.796 1.637-1.892 3.024-3.915 4.16-6.071z"/>
<path class="logo" d="m114.27 350.73 6.407 2.518-11.814 30.062-53.795-21.141 11.503-29.271 6.487 2.549-8.7984 22.389 16.85 6.622 7.8657-20.015 6.487 2.549-7.8656 20.015 17.562 6.902 9.11-23.179z"/>
<path class="logo" d="m91.228 446.84-56.084-13.98 1.8709-7.505c8.3952-3.222 16.743-6.018 25.042-8.387 8.2583-2.439 16.778-4.52 25.559-6.244l-21.649-4.52-22.763-5.675 1.7475-7.01 56.084 13.98-1.8706 7.506c-8.9871 1.847-17.789 3.887-26.404 6.12-8.6571 2.163-17.218 4.76-25.682 7.789l22.969 5.2 22.928 5.716-1.7475 7.01z"/>
<path class="logo" d="m88.156 468.47-1.0229 7.324-57.244-7.995 1.023-7.324 57.244 7.995z"/>
<path class="logo" d="m78.213 511.76c0.1888-3.565-0.4299-6.349-1.8559-8.354-1.4826-2.008-3.7234-3.091-6.7226-3.25-2.4898-0.132-4.6195 0.436-6.389 1.704-1.7665 1.212-3.1819 3.293-4.2461 6.245l-2.4011 6.767c-1.5292 4.232-3.6492 7.297-6.3601 9.197-2.7674 1.896-6.0751 2.742-9.9231 2.539-2.9425-0.156-5.5722-0.863-7.8889-2.12-2.3138-1.314-4.1106-3.282-5.3905-5.903-1.2769-2.678-1.8045-6.111-1.5828-10.299 0.1348-2.546 0.5854-5.161 1.3516-7.844 0.7097-2.686 1.7887-5.381 3.237-8.085l6.2402 2.713c-1.3321 2.654-2.3112 5.07-2.9373 7.25-0.6797 2.121-1.072 4.171-1.1769 6.152-0.1707 3.225 0.375 5.779 1.6372 7.662 1.2087 1.823 3.3409 2.815 6.3966 2.977 2.2069 0.117 4.1057-0.378 5.6965-1.486 1.5342-1.11 2.8632-3.168 3.9869-6.173l2.4011-6.767c3.0018-8.467 8.7185-12.477 17.15-12.03 4.8665 0.257 8.7498 1.938 11.65 5.043 2.8434 3.101 4.0928 7.905 3.7483 14.413-0.1408 2.66-0.6018 5.472-1.3831 8.439-0.8348 2.906-2.0434 5.907-3.6259 9.001l-6.1599-2.625c1.5169-2.927 2.6212-5.564 3.3129-7.911 0.6947-2.403 1.1064-4.821 1.2352-7.255z"/>
<path class="logo" d="m78.569 560.84c-0.1961-3.565-1.1109-6.267-2.7444-8.107-1.6901-1.836-4.0345-2.672-7.0333-2.507-2.4896 0.137-4.5457 0.931-6.1685 2.382-1.6258 1.395-2.8089 3.617-3.5492 6.665l-1.6588 6.987c-1.0648 4.372-2.8425 7.648-5.3332 9.828-2.5473 2.183-5.7446 3.38-9.5922 3.592-2.9422 0.162-5.6326-0.258-8.0713-1.258-2.4417-1.058-4.4399-2.821-5.9945-5.289-1.5577-2.525-2.4518-5.881-2.6821-10.068-0.1401-2.546 0.0264-5.194 0.4994-7.944 0.4164-2.747 1.199-5.543 2.3479-8.387l6.4961 2.026c-1.0388 2.781-1.7521 5.289-2.14 7.524-0.4475 2.181-0.6168 4.262-0.5079 6.242 0.1775 3.226 0.9949 5.706 2.4525 7.442 1.3979 1.682 3.6245 2.44 6.6798 2.271 2.2067-0.121 4.0412-0.818 5.5035-2.09 1.4058-1.269 2.5055-3.458 3.2993-6.566l1.6588-6.987c2.073-8.74 7.3248-13.342 15.755-13.806 4.866-0.268 8.9076 0.985 12.125 3.76 3.1607 2.777 4.92 7.419 5.2779 13.926 0.1463 2.659-0.0092 5.505-0.4667 8.538-0.5171 2.98-1.3957 6.093-2.636 9.339l-6.4065-1.946c1.1929-3.073 2.007-5.814 2.4421-8.221 0.4319-2.465 0.581-4.913 0.4471-7.346z"/>
<path class="logo" d="m37.697 644.93-1.3542-7.53 36.475-6.56c4.5732-0.822 7.9721-2.413 10.196-4.77 2.2145-2.414 2.9555-5.656 2.2233-9.727-0.7423-4.128-2.5668-6.909-5.4733-8.343-2.9066-1.435-6.6465-1.741-11.22-0.919l-36.475 6.561-1.3542-7.53 36.475-6.56c6.6368-1.194 12.142-0.514 16.517 2.039 4.3185 2.562 7.0596 7.078 8.2232 13.548 1.1736 6.525 0.183 11.741-2.9719 15.648-3.2207 3.861-8.1495 6.389-14.786 7.582l-36.475 6.561z"/>
<path class="logo" d="m110.43 687.33-55.056 17.599-5.1761-16.193c-1.6909-5.29-1.6377-9.59 0.1595-12.901 1.726-3.348 4.748-5.712 9.0661-7.092l1.7812-0.569c2.3749-0.76 4.6526-0.893 6.8328-0.4 2.1803 0.493 4.138 1.593 5.8731 3.299 0.0032-3.154 0.8244-5.797 2.4636-7.927 1.568-2.167 3.8094-3.716 6.7241-4.648l1.7812-0.569c4.426-1.415 8.4025-1.258 11.93 0.47 3.4561 1.691 6.0551 5.263 7.7971 10.714l5.824 18.217zm-53.755-0.664 2.9245 9.149 17.407-5.565-2.9245-9.149c-0.8626-2.698-2.1844-4.507-3.9651-5.425-1.852-0.955-3.9924-1.044-6.4213-0.267l-1.9432 0.621c-2.3749 0.759-4.0128 2.056-4.9136 3.891-0.9721 1.798-1.0267 4.046-0.1641 6.745zm23.238-9.659 3.5715 11.173 18.298-5.849-3.5717-11.173c-0.9145-2.861-2.3246-4.76-4.2306-5.697-1.9232-0.992-4.1802-1.074-6.7711-0.245l-1.9431 0.621c-2.4829 0.793-4.2201 2.152-5.2116 4.075-1.0088 1.869-1.056 4.234-0.1415 7.095z"/>
<path class="logo" d="m123.26 728.1c1.717 0.956 3.762 2.54 6.135 4.751 2.348 2.161 4.508 5.123 6.48 8.888 2.13 4.066 3.078 7.951 2.844 11.656-0.311 3.681-1.641 7.065-3.99 10.151-2.426 3.062-5.697 5.671-9.813 7.828l-11.219 5.877c-6.425 3.366-12.311 4.402-17.659 3.11-5.4237-1.317-9.7528-5.063-12.987-11.237-1.1833-2.259-2.1682-4.749-2.9548-7.472-0.8129-2.773-1.2863-5.691-1.4203-8.756l6.7515-0.85c0.5094 5.491 1.7371 10.093 3.683 13.808 2.1563 4.116 5.0284 6.546 8.6163 7.289 3.5113 0.719 7.6513-0.17 12.42-2.668l11.219-5.878c4.517-2.366 7.567-5.276 9.149-8.727 1.583-3.452 1.282-7.261-0.9-11.427-0.842-1.606-1.872-3.146-3.091-4.618-1.246-1.523-2.511-2.779-3.797-3.768l-13.779 7.218 5.009 9.562-5.797 3.037-8.1653-15.585 23.265-12.189z"/>
<path class="logo" d="m159.07 792.74c-2.018-2.945-4.203-4.779-6.554-5.504-2.398-0.692-4.836-0.189-7.313 1.509-2.056 1.41-3.401 3.156-4.035 5.239-0.665 2.036-0.523 4.549 0.427 7.539l2.21 6.832c1.36 4.289 1.541 8.012 0.545 11.169-1.044 3.188-3.155 5.871-6.333 8.05-2.431 1.666-4.948 2.704-7.552 3.115-2.636 0.364-5.259-0.105-7.869-1.408-2.642-1.349-5.149-3.753-7.52-7.212-1.441-2.103-2.674-4.453-3.697-7.049-1.071-2.564-1.853-5.359-2.348-8.386l6.604-1.641c0.556 2.916 1.249 5.43 2.077 7.541 0.75 2.097 1.686 3.963 2.807 5.599 1.826 2.664 3.813 4.359 5.96 5.086 2.068 0.712 4.364 0.204 6.888-1.526 1.823-1.25 3.029-2.798 3.618-4.645 0.543-1.814 0.346-4.256-0.589-7.324l-2.21-6.833c-2.766-8.546-0.667-15.206 6.297-19.979 4.02-2.756 8.125-3.783 12.315-3.082 4.143 0.732 8.057 3.786 11.741 9.161 1.506 2.197 2.851 4.71 4.035 7.54 1.105 2.815 1.97 5.932 2.595 9.35l-6.485 1.663c-0.577-3.246-1.304-6.011-2.182-8.294-0.91-2.33-2.054-4.5-3.432-6.51z"/>
<path class="logo" d="m176.55 818.48 5.216-4.495 21.088 24.466-43.782 37.736-20.533-23.822 5.28-4.55 15.705 18.22 13.714-11.82-14.041-16.289 5.28-4.551 14.04 16.289 14.293-12.319-16.26-18.865z"/>
<path class="logo" d="m196.82 919.72-5.217-4.621 53.714-60.635 5.217 4.622-53.714 60.634z"/>
<path class="logo" d="m280.86 912.09c-2.96-1.996-5.666-2.897-8.119-2.706-2.485 0.239-4.566 1.603-6.245 4.094-1.394 2.067-2.002 4.186-1.825 6.356 0.131 2.138 1.188 4.422 3.171 6.853l4.569 5.54c2.842 3.488 4.381 6.883 4.615 10.184 0.203 3.349-0.773 6.621-2.926 9.816-1.648 2.443-3.606 4.335-5.876 5.675-2.317 1.308-4.929 1.837-7.835 1.586-2.954-0.282-6.169-1.595-9.646-3.939-2.114-1.426-4.125-3.157-6.032-5.194-1.939-1.991-3.695-4.302-5.269-6.935l5.537-3.956c1.591 2.508 3.159 4.59 4.707 6.248 1.469 1.674 3.025 3.065 4.67 4.174 2.678 1.805 5.149 2.651 7.413 2.537 2.185-0.099 4.133-1.417 5.843-3.954 1.236-1.833 1.787-3.716 1.656-5.65-0.163-1.887-1.244-4.085-3.243-6.594l-4.569-5.54c-5.716-6.929-6.215-13.894-1.495-20.895 2.724-4.041 6.163-6.507 10.317-7.397 4.122-0.843 8.885 0.557 14.288 4.2 2.209 1.488 4.384 3.33 6.526 5.526 2.063 2.211 4.014 4.791 5.854 7.739l-5.419 3.933c-1.731-2.806-3.424-5.11-5.081-6.91-1.703-1.832-3.565-3.429-5.586-4.791z"/>
<path class="logo" d="m323.13 937.03c-3.158-1.666-5.946-2.271-8.364-1.817-2.444 0.505-4.367 2.086-5.768 4.742-1.163 2.206-1.539 4.378-1.129 6.516 0.36 2.111 1.656 4.269 3.89 6.472l5.138 5.016c3.202 3.162 5.097 6.371 5.685 9.628 0.562 3.308-0.056 6.666-1.853 10.074-1.375 2.607-3.118 4.698-5.231 6.275-2.163 1.55-4.702 2.356-7.619 2.42-2.966 0.037-6.304-0.922-10.013-2.878-2.256-1.19-4.441-2.695-6.556-4.515-2.142-1.77-4.137-3.879-5.985-6.327l5.079-4.529c1.851 2.322 3.635 4.223 5.352 5.705 1.64 1.506 3.337 2.721 5.092 3.647 2.857 1.506 5.404 2.081 7.643 1.724 2.162-0.333 3.956-1.853 5.384-4.56 1.031-1.955 1.377-3.886 1.038-5.795-0.366-1.858-1.677-3.927-3.934-6.207l-5.139-5.016c-6.429-6.273-7.674-13.144-3.735-20.613 2.273-4.31 5.426-7.132 9.46-8.464 4.008-1.282 8.894-0.403 14.658 2.637 2.356 1.243 4.716 2.84 7.082 4.792 2.289 1.976 4.507 4.331 6.653 7.064l-4.964 4.494c-2.022-2.604-3.954-4.712-5.795-6.324-1.891-1.637-3.914-3.025-6.069-4.161z"/>
<path class="logo" d="m350.6 951.67 2.52-6.407 30.058 11.824-21.159 53.783-29.267-11.508 2.551-6.486 22.385 8.804 6.628-16.847-20.012-7.872 2.552-6.486 20.012 7.872 6.908-17.56-23.176-9.117z"/>
<path class="logo" d="m446.69 974.75-14 56.082-7.504-1.88c-3.219-8.39-6.012-16.74-8.379-25.04-2.435-8.261-4.513-16.781-6.234-25.563l-4.528 21.648-5.683 22.765-7.01-1.75 14-56.083 7.505 1.874c1.844 8.987 3.882 17.79 6.111 26.406 2.161 8.653 4.754 17.223 7.781 25.683l5.208-22.966 5.723-22.926 7.01 1.75z"/>
<path class="logo" d="m468.32 977.83 7.323 1.025-8.015 57.238-7.323-1.02 8.015-57.243z"/>
<path class="logo" d="m511.61 987.78c-3.565-0.19-6.35 0.428-8.355 1.853-2.009 1.482-3.093 3.723-3.253 6.722-0.132 2.49 0.435 4.62 1.703 6.39 1.211 1.77 3.292 3.18 6.242 4.25l6.767 2.4c4.231 1.53 7.296 3.65 9.195 6.36 1.895 2.77 2.74 6.08 2.535 9.93-0.157 2.94-0.864 5.57-2.123 7.89-1.315 2.31-3.283 4.11-5.905 5.38-2.678 1.28-6.111 1.81-10.298 1.58-2.547-0.13-5.161-0.58-7.844-1.35-2.686-0.71-5.381-1.79-8.084-3.24l2.715-6.24c2.653 1.33 5.07 2.31 7.249 2.94 2.12 0.68 4.171 1.07 6.151 1.18 3.226 0.17 5.78-0.37 7.663-1.63 1.824-1.21 2.817-3.34 2.98-6.4 0.117-2.21-0.377-4.11-1.484-5.7-1.11-1.53-3.167-2.86-6.172-3.99l-6.767-2.4c-8.465-3-12.473-8.72-12.024-17.154 0.259-4.867 1.942-8.749 5.047-11.648 3.102-2.842 7.907-4.09 14.415-3.743 2.659 0.141 5.472 0.603 8.438 1.386 2.906 0.835 5.906 2.045 9 3.629l-2.627 6.159c-2.927-1.518-5.563-2.624-7.91-3.316-2.403-0.696-4.821-1.108-7.254-1.238z"/>
<path class="logo" d="m560.69 987.45c-3.564 0.195-6.267 1.108-8.107 2.741-1.837 1.69-2.674 4.034-2.51 7.033 0.136 2.489 0.93 4.55 2.38 6.17 1.394 1.63 3.616 2.81 6.664 3.55l6.986 1.66c4.372 1.07 7.647 2.85 9.826 5.34 2.182 2.55 3.379 5.74 3.589 9.59 0.161 2.94-0.259 5.63-1.261 8.07-1.059 2.44-2.822 4.44-5.291 6-2.525 1.55-5.882 2.45-10.069 2.67-2.546 0.14-5.194-0.02-7.944-0.5-2.747-0.42-5.542-1.2-8.386-2.35l2.029-6.49c2.781 1.04 5.288 1.75 7.523 2.14 2.181 0.45 4.262 0.62 6.242 0.51 3.225-0.18 5.706-0.99 7.442-2.45 1.683-1.4 2.441-3.63 2.274-6.68-0.121-2.21-0.817-4.04-2.088-5.5-1.269-1.41-3.457-2.51-6.565-3.31l-6.987-1.66c-8.739-2.07-13.34-7.33-13.8-15.758-0.266-4.866 0.988-8.907 3.763-12.123 2.779-3.16 7.421-4.918 13.928-5.273 2.66-0.146 5.506 0.011 8.539 0.469 2.979 0.518 6.092 1.398 9.338 2.639l-1.949 6.406c-3.073-1.194-5.813-2.009-8.22-2.445-2.464-0.432-4.913-0.582-7.346-0.449z"/>
<path class="logo" d="m644.76 1028.4-7.53 1.35-6.547-36.479c-0.821-4.573-2.41-7.973-4.767-10.198-2.413-2.215-5.655-2.957-9.727-2.227-4.127 0.741-6.909 2.565-8.344 5.471-1.436 2.906-1.744 6.646-0.923 11.219l6.548 36.474-7.529 1.35-6.548-36.472c-1.192-6.637-0.51-12.143 2.044-16.516 2.564-4.318 7.081-7.057 13.551-8.219 6.526-1.171 11.741-0.179 15.647 2.978 3.86 3.222 6.386 8.151 7.577 14.789l6.548 36.48z"/>
<path class="logo" d="m687.19 955.62 17.579 55.065-16.194 5.17c-5.291 1.69-9.591 1.63-12.901-0.17-3.348-1.72-5.711-4.75-7.089-9.07l-0.569-1.78c-0.758-2.37-0.891-4.65-0.397-6.829 0.494-2.181 1.594-4.138 3.3-5.872-3.154-5e-3 -5.796-0.827-7.925-2.467-2.167-1.569-3.715-3.81-4.646-6.725l-0.569-1.782c-1.413-4.426-1.255-8.403 0.474-11.929 1.693-3.455 5.265-6.053 10.718-7.794l18.219-5.817zm-0.683 53.755 9.149-2.92-5.558-17.411-9.15 2.921c-2.699 0.862-4.508 2.183-5.426 3.964-0.956 1.851-1.046 3.992-0.27 6.416l0.62 1.95c0.759 2.37 2.055 4.01 3.889 4.91 1.798 0.98 4.046 1.03 6.746 0.17zm-9.651-23.241 11.174-3.568-5.843-18.3-11.174 3.568c-2.861 0.913-4.761 2.323-5.699 4.228-0.992 1.923-1.074 4.18-0.247 6.771l0.62 1.944c0.793 2.483 2.151 4.221 4.074 5.213 1.869 1.009 4.234 1.057 7.095 0.144z"/>
<path class="logo" d="m727.97 942.81c0.957-1.716 2.541-3.76 4.753-6.133 2.161-2.347 5.125-4.506 8.89-6.477 4.067-2.128 7.952-3.075 11.657-2.84 3.681 0.312 7.065 1.644 10.15 3.994 3.061 2.427 5.669 5.699 7.824 9.816l5.873 11.221c3.364 6.426 4.399 12.312 3.104 17.659-1.319 5.424-5.066 9.751-11.241 12.984-2.259 1.182-4.75 2.166-7.473 2.952-2.773 0.812-5.692 1.284-8.756 1.417l-0.848-6.752c5.491-0.507 10.094-1.733 13.809-3.678 4.117-2.155 6.547-5.026 7.292-8.614 0.72-3.511-0.168-7.651-2.664-12.421l-5.874-11.22c-2.365-4.519-5.273-7.57-8.724-9.153-3.451-1.584-7.26-1.285-11.427 0.896-1.607 0.841-3.147 1.871-4.619 3.09-1.523 1.245-2.78 2.51-3.77 3.796l7.214 13.781 9.564-5.006 3.035 5.798-15.589 8.16-12.18-23.27z"/>
<path class="logo" d="m792.61 907.02c-2.945 2.017-4.78 4.202-5.505 6.553-0.693 2.397-0.191 4.835 1.506 7.313 1.409 2.057 3.154 3.403 5.237 4.037 2.036 0.666 4.549 0.524 7.539-0.425l6.834-2.207c4.289-1.358 8.012-1.539 11.168-0.541 3.188 1.045 5.871 3.157 8.048 6.336 1.665 2.431 2.703 4.948 3.113 7.552 0.363 2.637-0.107 5.259-1.411 7.869-1.35 2.642-3.755 5.148-7.214 7.517-2.104 1.441-4.454 2.673-7.051 3.696-2.564 1.069-5.36 1.851-8.387 2.344l-1.639-6.604c2.917-0.555 5.431-1.247 7.542-2.075 2.097-0.749 3.964-1.684 5.6-2.805 2.665-1.825 4.361-3.811 5.089-5.958 0.712-2.068 0.204-4.364-1.525-6.889-1.249-1.823-2.796-3.03-4.643-3.619-1.814-0.544-4.256-0.348-7.325 0.586l-6.833 2.208c-8.547 2.763-15.206 0.662-19.977-6.304-2.754-4.021-3.78-8.126-3.078-12.316 0.734-4.143 3.789-8.056 9.166-11.738 2.197-1.505 4.711-2.849 7.541-4.032 2.815-1.104 5.932-1.968 9.351-2.592l1.661 6.486c-3.247 0.575-6.012 1.301-8.295 2.179-2.331 0.909-4.501 2.052-6.512 3.429z"/>
<path class="logo" d="m818.36 889.55-4.493-5.216 24.473-21.08 37.722 43.794-23.83 20.525-4.548-5.281 18.226-15.699-11.816-13.718-16.294 14.035-4.549-5.281 16.294-14.035-12.315-14.297-18.87 16.253z"/>
<path class="logo" d="m919.61 869.32-4.624 5.215-60.616-53.735 4.623-5.216 60.617 53.736z"/>
<path class="logo" d="m912.01 785.27c-1.997 2.959-2.9 5.665-2.709 8.118 0.238 2.485 1.602 4.567 4.092 6.247 2.067 1.394 4.185 2.003 6.355 1.826 2.138-0.129 4.423-1.186 6.854-3.168l5.542-4.567c3.489-2.841 6.884-4.378 10.186-4.612 3.349-0.201 6.62 0.775 9.815 2.93 2.442 1.648 4.333 3.608 5.673 5.878 1.307 2.318 1.835 4.93 1.583 7.836-0.283 2.953-1.598 6.168-3.943 9.644-1.426 2.114-3.158 4.124-5.196 6.03-1.991 1.938-4.303 3.693-6.936 5.266l-3.954-5.538c2.508-1.589 4.591-3.157 6.25-4.704 1.674-1.468 3.065-3.024 4.174-4.669 1.807-2.677 2.653-5.148 2.54-7.412-0.098-2.185-1.415-4.133-3.952-5.845-1.832-1.236-3.715-1.788-5.649-1.657-1.887 0.162-4.085 1.242-6.595 3.24l-5.542 4.567c-6.931 5.714-13.896 6.21-20.895 1.488-4.04-2.725-6.505-6.165-7.393-10.319-0.842-4.123 0.559-8.885 4.204-14.287 1.489-2.208 3.332-4.382 5.529-6.524 2.211-2.062 4.792-4.012 7.741-5.851l3.931 5.42c-2.807 1.73-5.111 3.422-6.912 5.078-1.833 1.703-3.43 3.565-4.793 5.585z"/>
<path class="logo" d="m936.96 743.01c-1.667 3.157-2.273 5.944-1.819 8.362 0.504 2.445 2.084 4.368 4.74 5.77 2.205 1.164 4.376 1.541 6.515 1.132 2.112-0.359 4.269-1.655 6.473-3.888l5.018-5.136c3.163-3.201 6.373-5.095 9.631-5.682 3.307-0.561 6.665 0.058 10.073 1.857 2.606 1.375 4.697 3.119 6.272 5.233 1.55 2.163 2.356 4.703 2.418 7.619 0.036 2.967-0.924 6.304-2.882 10.013-1.19 2.255-2.696 4.44-4.517 6.554-1.77 2.141-3.88 4.135-6.329 5.983l-4.527-5.081c2.322-1.85 4.225-3.633 5.707-5.35 1.506-1.639 2.722-3.336 3.648-5.09 1.508-2.857 2.084-5.404 1.727-7.643-0.332-2.162-1.852-3.957-4.558-5.385-1.954-1.032-3.886-1.378-5.794-1.04-1.859 0.364-3.928 1.675-6.208 3.931l-5.018 5.137c-6.276 6.427-13.148 7.67-20.615 3.729-4.309-2.275-7.13-5.429-8.46-9.464-1.281-4.008-0.4-8.893 2.642-14.656 1.243-2.356 2.841-4.716 4.794-7.081 1.977-2.288 4.332-4.505 7.067-6.65l4.491 4.965c-2.605 2.022-4.713 3.952-6.325 5.793-1.639 1.89-3.027 3.913-4.164 6.068z"/>
<path class="logo" d="m951.61 715.56-6.406-2.523 11.835-30.053 53.779 21.178-11.522 29.263-6.486-2.554 8.818-22.382-16.85-6.634-7.879 20.009-6.485-2.553 7.879-20.01-17.558-6.914-9.125 23.173z"/>
<path class="logo" d="m974.72 619.46 56.078 14.019-1.88 7.504c-8.4 3.216-16.75 6.006-25.05 8.37-8.257 2.432-16.778 4.507-25.561 6.225l21.647 4.536 22.764 5.69-1.76 7.009-56.071-14.019 1.876-7.504c8.988-1.841 17.791-3.875 26.408-6.102 8.657-2.157 17.217-4.748 25.687-7.772l-22.965-5.215-22.925-5.732 1.752-7.009z"/>
<path class="logo" d="m977.81 597.84 1.028-7.323 57.242 8.035-1.03 7.323-57.24-8.035z"/>
<path class="logo" d="m987.78 554.55c-0.191 3.565 0.425 6.351 1.85 8.356 1.481 2.009 3.721 3.094 6.72 3.255 2.49 0.133 4.617-0.433 6.387-1.7 1.77-1.211 3.19-3.291 4.25-6.242l2.41-6.765c1.53-4.231 3.65-7.295 6.37-9.193 2.76-1.894 6.07-2.738 9.92-2.532 2.94 0.158 5.57 0.866 7.89 2.126 2.31 1.315 4.11 3.284 5.38 5.907 1.28 2.678 1.81 6.111 1.58 10.299-0.14 2.546-0.59 5.161-1.36 7.843-0.71 2.686-1.79 5.38-3.24 8.083l-6.24-2.718c1.34-2.652 2.32-5.068 2.95-7.248 0.68-2.119 1.07-4.17 1.18-6.15 0.17-3.226-0.37-5.78-1.64-7.664-1.2-1.823-3.33-2.817-6.39-2.981-2.21-0.119-4.11 0.375-5.7 1.482-1.53 1.109-2.86 3.166-3.99 6.17l-2.4 6.766c-3.01 8.464-8.73 12.47-17.163 12.018-4.866-0.261-8.748-1.945-11.646-5.051-2.841-3.103-4.088-7.908-3.739-14.416 0.143-2.659 0.606-5.472 1.389-8.437 0.837-2.906 2.048-5.906 3.632-8.999l6.158 2.629c-1.518 2.926-2.625 5.562-3.318 7.908-0.696 2.403-1.11 4.821-1.24 7.254z"/>
<path class="logo" d="m987.46 505.48c0.194 3.564 1.107 6.267 2.739 8.108 1.689 1.838 4.033 2.675 7.032 2.512 2.489-0.135 4.549-0.928 6.169-2.378 1.63-1.394 2.81-3.614 3.55-6.663l1.67-6.985c1.07-4.371 2.85-7.646 5.34-9.824 2.55-2.182 5.75-3.377 9.59-3.586 2.95-0.16 5.64 0.262 8.07 1.264 2.44 1.059 4.44 2.824 5.99 5.293 1.56 2.526 2.45 5.883 2.68 10.07 0.14 2.546-0.03 5.194-0.51 7.944-0.41 2.747-1.2 5.542-2.35 8.385l-6.49-2.031c1.04-2.78 1.75-5.288 2.14-7.522 0.45-2.181 0.62-4.262 0.51-6.242-0.17-3.225-0.99-5.707-2.44-7.443-1.4-1.684-3.63-2.443-6.68-2.277-2.21 0.12-4.04 0.816-5.51 2.087-1.4 1.268-2.51 3.456-3.3 6.564l-1.66 6.986c-2.08 8.738-7.34 13.337-15.769 13.795-4.867 0.264-8.907-0.992-12.123-3.768-3.158-2.78-4.915-7.423-5.268-13.93-0.144-2.659 0.013-5.505 0.473-8.538 0.519-2.979 1.4-6.092 2.642-9.337l6.405 1.95c-1.195 3.073-2.011 5.813-2.447 8.22-0.434 2.464-0.585 4.912-0.453 7.346z"/>
<path class="logo" d="m1028.4 421.42 1.35 7.53-36.48 6.535c-4.574 0.82-7.974 2.407-10.2 4.764-2.216 2.412-2.959 5.653-2.23 9.725 0.74 4.128 2.562 6.91 5.468 8.347 2.905 1.437 6.645 1.745 11.219 0.926l36.483-6.535 1.35 7.53-36.484 6.535c-6.638 1.189-12.143 0.506-16.515-2.05-4.317-2.565-7.055-7.083-8.214-13.554-1.169-6.526-0.175-11.741 2.983-15.646 3.223-3.859 8.153-6.383 14.791-7.572l36.479-6.535z"/>
<path class="logo" d="m955.68 378.96 55.067-17.56 5.17 16.196c1.68 5.291 1.63 9.591-0.17 12.901-1.73 3.347-4.75 5.709-9.07 7.086l-1.78 0.568c-2.38 0.758-4.66 0.889-6.838 0.395-2.18-0.495-4.137-1.596-5.871-3.303-5e-3 3.154-0.828 5.796-2.469 7.925-1.569 2.166-3.812 3.714-6.727 4.643l-1.782 0.568c-4.427 1.412-8.403 1.253-11.929-0.478-3.455-1.694-6.051-5.267-7.79-10.72l-5.811-18.221zm53.757 0.702-2.92-9.151-17.412 5.552 2.918 9.151c0.861 2.7 2.182 4.509 3.962 5.428 1.851 0.956 3.991 1.047 6.422 0.272l1.94-0.62c2.38-0.757 4.02-2.053 4.92-3.887 0.97-1.797 1.03-4.046 0.17-6.745zm-23.247 9.643-3.563-11.176-18.302 5.837 3.563 11.175c0.913 2.861 2.322 4.762 4.227 5.7 1.923 0.993 4.18 1.077 6.771 0.25l1.944-0.62c2.483-0.792 4.221-2.149 5.214-4.071 1.01-1.869 1.059-4.234 0.146-7.095z"/>
<path class="logo" d="m942.88 338.18c-1.715-0.958-3.759-2.542-6.131-4.755-2.346-2.162-4.504-5.127-6.474-8.893-2.127-4.067-3.072-7.953-2.836-11.658 0.313-3.681 1.646-7.064 3.997-10.148 2.429-3.06 5.701-5.667 9.819-7.821l11.223-5.869c6.427-3.362 12.314-4.394 17.66-3.098 5.423 1.321 9.75 5.069 12.98 11.245 1.182 2.26 2.165 4.751 2.95 7.475 0.811 2.773 1.282 5.692 1.414 8.756l-6.752 0.846c-0.506-5.491-1.73-10.095-3.674-13.81-2.153-4.118-5.024-6.55-8.611-7.295-3.511-0.722-7.652 0.165-12.422 2.659l-11.223 5.87c-4.519 2.364-7.571 5.271-9.155 8.721-1.585 3.451-1.288 7.26 0.892 11.428 0.841 1.607 1.87 3.147 3.088 4.62 1.244 1.523 2.509 2.78 3.795 3.771l13.783-7.209-5.003-9.566 5.8-3.033 8.154 15.591-23.274 12.173z"/>
<path class="logo" d="m907.12 273.52c2.016 2.946 4.2 4.782 6.55 5.508 2.398 0.694 4.836 0.193 7.314-1.504 2.058-1.408 3.404-3.153 4.039-5.236 0.667-2.035 0.526-4.548-0.422-7.539l-2.205-6.834c-1.357-4.29-1.536-8.013-0.537-11.169 1.046-3.187 3.159-5.869 6.339-8.046 2.431-1.664 4.949-2.7 7.553-3.109 2.636-0.363 5.259 0.108 7.869 1.413 2.641 1.351 5.146 3.756 7.514 7.217 1.44 2.104 2.671 4.455 3.693 7.051 1.069 2.565 1.849 5.361 2.342 8.389l-6.605 1.636c-0.554-2.916-1.245-5.431-2.072-7.543-0.749-2.097-1.683-3.963-2.803-5.6-1.825-2.666-3.81-4.363-5.957-5.091-2.067-0.713-4.364-0.206-6.889 1.522-1.824 1.248-3.031 2.795-3.621 4.642-0.544 1.814-0.349 4.256 0.584 7.325l2.205 6.834c2.76 8.548 0.657 15.206-6.311 19.975-4.022 2.753-8.127 3.777-12.317 3.074-4.142-0.736-8.054-3.792-11.734-9.17-1.505-2.198-2.848-4.712-4.03-7.543-1.103-2.815-1.966-5.933-2.589-9.352l6.487-1.658c0.574 3.246 1.299 6.012 2.176 8.296 0.908 2.331 2.051 4.501 3.427 6.512z"/>
<path class="logo" d="m889.66 247.76-5.218 4.491-21.072-24.48 43.807-37.707 20.517 23.837-5.282 4.547-15.693-18.232-13.722 11.811 14.029 16.299-5.283 4.547-14.029-16.299-14.301 12.31 16.247 18.876z"/>
<path class="logo" d="m869.46 146.51 5.214 4.625-53.756 60.598-5.214-4.626 53.756-60.597z"/>
<path class="logo" d="m785.41 154.08c2.959 1.997 5.665 2.901 8.118 2.711 2.484-0.237 4.567-1.6 6.247-4.089 1.396-2.067 2.005-4.185 1.829-6.355-0.129-2.138-1.184-4.423-3.166-6.855l-4.565-5.543c-2.84-3.49-4.376-6.886-4.608-10.188-0.201-3.349 0.777-6.62 2.933-9.814 1.649-2.442 3.609-4.332 5.88-5.671 2.318-1.306 4.93-1.833 7.836-1.581 2.953 0.285 6.168 1.6 9.643 3.947 2.114 1.426 4.123 3.159 6.029 5.198 1.937 1.991 3.692 4.304 5.264 6.938l-5.54 3.952c-1.589-2.508-3.156-4.592-4.702-6.251-1.468-1.675-3.024-3.067-4.667-4.177-2.677-1.807-5.148-2.655-7.412-2.542-2.185 0.097-4.134 1.414-5.846 3.95-1.236 1.831-1.79 3.714-1.659 5.648 0.161 1.887 1.241 4.086 3.238 6.597l4.565 5.543c5.712 6.933 6.205 13.898 1.481 20.896-2.727 4.039-6.168 6.502-10.322 7.39-4.123 0.84-8.885-0.563-14.286-4.21-2.207-1.49-4.381-3.334-6.521-5.531-2.062-2.212-4.011-4.793-5.849-7.743l5.422-3.929c1.728 2.808 3.42 5.112 5.075 6.914 1.703 1.833 3.564 3.431 5.583 4.795z"/>
<path class="logo" d="m743.16 129.11c3.156 1.667 5.944 2.275 8.362 1.822 2.445-0.503 4.369-2.083 5.771-4.738 1.165-2.205 1.543-4.376 1.135-6.515-0.359-2.112-1.654-4.27-3.886-6.474l-5.135-5.02c-3.199-3.164-5.092-6.375-5.678-9.6328-0.56-3.3078 0.06-6.6652 1.86-10.072 1.376-2.6055 3.121-4.6957 5.235-6.2708 2.164-1.5486 4.704-2.3536 7.621-2.4152 2.966-0.0351 6.303 0.9267 10.011 2.8854 2.255 1.1911 4.439 2.6974 6.553 4.5191 2.14 1.7715 4.134 3.882 5.98 6.3313l-5.082 4.5252c-1.849-2.3227-3.632-4.2257-5.348-5.7089-1.639-1.5068-3.335-2.7234-5.089-3.6498-2.856-1.5087-5.403-2.0853-7.642-1.7298-2.162 0.3319-3.958 1.8507-5.387 4.5564-1.032 1.9541-1.38 3.8855-1.042 5.7942 0.364 1.8585 1.674 3.9281 3.93 6.2091l5.135 5.02c6.424 6.278 7.665 13.15 3.721 20.615-2.276 4.31-5.432 7.129-9.466 8.458-4.009 1.279-8.894 0.397-14.656-2.647-2.355-1.244-4.715-2.843-7.079-4.797-2.288-1.978-4.504-4.334-6.648-7.069l4.967-4.489c2.02 2.605 3.951 4.714 5.79 6.327 1.89 1.639 3.912 3.028 6.067 4.166z"/>
<path class="logo" d="m715.7 114.46-2.525 6.406-30.05-11.846 21.197-53.773 29.259 11.533-2.556 6.4844-22.379-8.8215-6.64 16.844 20.007 7.8864-2.556 6.4844-20.007-7.8864-6.92 17.555 23.17 9.133z"/>
<path class="logo" d="m619.62 91.313 14.038-56.069 7.503 1.8786c3.213 8.3985 6 16.749 8.361 25.051 2.43 8.2608 4.502 16.783 6.217 25.566l4.543-21.645 5.698-22.758 7.009 1.7548-14.038 56.069-7.504-1.8785c-1.838-8.9891-3.869-17.793-6.093-26.411-2.155-8.6593-4.742-17.222-7.763-25.69l-5.224 22.964-5.739 22.922-7.008-1.7548z"/>
<path class="logo" d="m598 88.219-7.323-1.0305 8.055-57.236 7.322 1.0305-8.054 57.236z"/>
<path class="logo" d="m554.71 78.23c3.565 0.1924 6.35-0.4234 8.357-1.8473 2.009-1.4805 3.095-3.7203 3.256-6.7192 0.135-2.4897-0.431-4.62-1.698-6.3908-1.209-1.7678-3.289-3.1853-6.239-4.2525l-6.765-2.4082c-4.231-1.5335-7.294-3.6567-9.191-6.3695-1.893-2.7694-2.736-6.078-2.528-9.9258 0.159-2.9423 0.868-5.5713 2.128-7.8867 1.316-2.3124 3.286-4.1072 5.909-5.3844 2.679-1.2741 6.112-1.7981 10.299-1.5721 2.547 0.1374 5.161 0.5906 7.844 1.3597 2.685 0.7124 5.379 1.7942 8.081 3.2453l-2.72 6.2374c-2.652-1.3348-5.067-2.3165-7.247-2.9448-2.119-0.6819-4.169-1.0763-6.15-1.1832-3.225-0.1741-5.78 0.369-7.664 1.6293-1.824 1.2067-2.819 3.3379-2.984 6.3934-0.119 2.2068 0.375 4.1062 1.48 5.6981 1.109 1.5353 3.166 2.8664 6.169 3.9933l6.765 2.4081c8.464 3.0105 12.468 8.7313 12.013 17.162-0.263 4.8662-1.948 8.7477-5.055 11.644-3.105 2.8401-7.91 4.0846-14.417 3.7333-2.66-0.1435-5.472-0.6074-8.438-1.3917-2.905-0.8379-5.905-2.0496-8.997-3.6352l2.631-6.1572c2.925 1.5199 5.561 2.6269 7.907 3.321 2.403 0.6972 4.821 1.1114 7.254 1.2428z"/>
</svg>
