<svg width="1066" height="1066" viewBox="0 0 1066 1066" fill="none" xmlns="http://www.w3.org/2000/svg">
<path d="M594 137.5C572 133.5 559.5 133.5 542 133V323.345C596.5 323.345 633.5 327.5 697.5 339.5C664 204 611.5 149 594 137.5Z" fill="white"/>
<path d="M523 133C499.5 133 478 135.5 471.5 137C401.5 196.5 376.5 311.5 367.5 340C387.5 336.5 423 326 523 322.5V133Z" fill="white"/>
<path d="M523.5 925C500 925 470.5 921.5 464 920C399 858.5 375 746.5 367 718.5C387 722 423.5 732 523.5 735.5V925Z" fill="white"/>
<path d="M542 925.5C565.5 925.5 595 922 601.5 920.5C666.5 859 690.5 747 698.5 719C678.5 722.5 642 732.5 542 736V925.5Z" fill="white"/>
<path d="M441 143.5C425.5 147 213 189 145.5 438C164 422 229.5 370.5 348 344.5C354.5 323.5 374.5 219 441 143.5Z" fill="white"/>
<path d="M440.5 914.5C425 911 212.5 869 145 620C163.5 636 229 687.5 347.5 713.5C354 734.5 374 839 440.5 914.5Z" fill="white"/>
<path d="M625 914.5C640.5 911 853 869 920.5 620C902 636 836.5 687.5 718 713.5C711.5 734.5 691.5 839 625 914.5Z" fill="white"/>
<path d="M623 142C638.5 145.5 856 192.5 918.5 436.5C898 411.5 839 373 716 343C709.5 322 689.5 217.5 623 142Z" fill="white"/>
<path d="M137 519C137 505.5 137 488.5 141 467.5C151.5 453 210 393 343 364.5C332.5 425.5 326.667 493.5 326.667 519H137Z" fill="white"/>
<path d="M137 538C137 551.5 137 568.5 141 589.5C151.5 604 210 664 343 692.5C332.5 631.5 326.667 563.5 326.667 538H137Z" fill="white"/>
<path d="M929 519.5C929 506 927.5 480.5 923.5 459.5C913 445 855 392 722 363.5C732.5 424.5 739 494 739 519.5H929Z" fill="white"/>
<path d="M929 538C929 551.5 927.5 577 923.5 598C913 612.5 855 665.5 722 694C732.5 633 739 563.5 739 538H929Z" fill="white"/>
<path d="M523.5 341.5C433 344 379.5 356 363.5 360C350 424 347 466 345.5 519.5L523.5 519.215V341.5Z" fill="white"/>
<path d="M523 716C432.5 713.5 379 701.5 363 697.5C349.5 633.5 346.5 591.5 345 538L523 538.285V716Z" fill="white"/>
<path d="M542 716C632.5 713.5 686 701.5 702 697.5C717.5 639.5 720 591.5 720 538L542 538.285V716Z" fill="white"/>
<path d="M542 341C632.5 343.5 687 355.5 703 359.5C716.5 423.5 719.5 465.215 721 518.715H542V341Z" fill="white"/>
<path d="M505.01 78.5737C508.575 78.3764 511.276 77.4606 513.116 75.8265C514.952 74.1358 515.787 71.791 515.621 68.7923C515.483 66.3028 514.688 64.2469 513.236 62.6246C511.841 60.9993 509.619 59.817 506.57 59.0777L499.583 57.4214C495.21 56.3581 491.934 54.5814 489.753 52.0915C487.569 49.545 486.37 46.348 486.157 42.5006C485.995 39.5584 486.413 36.8678 487.413 34.4288C488.47 31.9867 490.232 29.9879 492.7 28.4325C495.224 26.8739 498.58 25.9787 502.767 25.7469C505.313 25.606 507.961 25.7715 510.711 26.2436C513.459 26.659 516.254 27.4407 519.099 28.5886L517.075 35.0854C514.293 34.0475 511.785 33.3351 509.55 32.948C507.369 32.5012 505.288 32.3327 503.308 32.4423C500.083 32.6208 497.602 33.4391 495.867 34.8973C494.185 36.2957 493.429 38.5226 493.598 41.5779C493.72 43.7846 494.417 45.6188 495.69 47.0807C496.96 48.486 499.149 49.585 502.257 50.3777L509.245 52.0341C517.986 54.1041 522.59 59.3543 523.056 67.7847C523.326 72.6506 522.074 76.6927 519.301 79.9109C516.525 83.0725 511.883 84.8334 505.377 85.1936C502.717 85.3408 499.871 85.1862 496.838 84.7298C493.858 84.2137 490.745 83.3361 487.498 82.097L489.442 75.6898C492.516 76.8817 495.257 77.6948 497.664 78.129C500.129 78.5602 502.577 78.7084 505.01 78.5737Z" fill="white"/>
<path d="M420.908 37.7307L428.437 36.3739L435.01 72.8464C435.834 77.4194 437.425 80.8177 439.784 83.0413C442.198 85.2549 445.44 85.9948 449.512 85.2612C453.638 84.5174 456.419 82.6921 457.853 79.785C459.286 76.8779 459.591 73.1379 458.767 68.5649L452.194 32.0925L459.723 30.7357L466.296 67.2081C467.492 73.8446 466.814 79.3504 464.263 83.7255C461.702 88.0449 457.187 90.7875 450.718 91.9534C444.193 93.1292 438.976 92.1404 435.068 88.9869C431.206 85.7675 428.677 80.8396 427.481 74.2031L420.908 37.7307Z" fill="white"/>
<path d="M378.526 110.482L360.908 55.4321L377.099 50.2504C382.388 48.5578 386.689 48.6094 390 50.4055C393.349 52.1303 395.714 55.1515 397.096 59.4691L397.666 61.2502C398.425 63.6248 398.559 65.9024 398.067 68.0828C397.575 70.2633 396.476 72.2213 394.771 73.9571C397.925 73.9592 400.567 74.7794 402.698 76.4179C404.866 77.9852 406.416 80.226 407.348 83.1404L407.918 84.9214C409.335 89.347 409.179 93.3235 407.452 96.8511C405.762 100.307 402.192 102.908 396.741 104.652L378.526 110.482ZM379.172 56.7269L370.024 59.6545L375.594 77.0599L384.742 74.1322C387.441 73.2686 389.249 71.9463 390.166 70.1652C391.12 68.3129 391.209 66.1725 390.431 63.7438L389.81 61.8009C389.05 59.4262 387.752 57.7888 385.917 56.8886C384.119 55.9172 381.87 55.8632 379.172 56.7269ZM388.839 79.961L377.667 83.5363L383.522 101.832L394.694 98.2569C397.554 97.3414 399.453 95.9306 400.39 94.0243C401.381 92.1008 401.462 89.8437 400.632 87.2532L400.011 85.3102C399.216 82.8276 397.857 81.0909 395.934 80.1C394.064 79.0919 391.699 79.0455 388.839 79.961Z" fill="white"/>
<path d="M337.759 123.323C336.804 125.039 335.221 127.085 333.011 129.459C330.851 131.808 327.889 133.968 324.125 135.942C320.06 138.073 316.175 139.023 312.469 138.79C308.788 138.481 305.404 137.152 302.317 134.803C299.254 132.378 296.644 129.108 294.486 124.993L288.605 113.776C285.237 107.352 284.198 101.466 285.49 96.1187C286.804 90.6945 290.548 86.3641 296.721 83.1275C298.98 81.9434 301.47 80.9576 304.192 80.1701C306.965 79.3563 309.883 78.8818 312.948 78.7468L313.8 85.4979C308.31 86.0093 303.708 87.2385 299.994 89.1857C295.878 91.3434 293.45 94.2164 292.708 97.8046C291.99 101.316 292.881 105.456 295.38 110.224L301.261 121.44C303.63 125.957 306.54 129.006 309.992 130.587C313.445 132.168 317.253 131.867 321.419 129.683C323.025 128.841 324.564 127.81 326.036 126.59C327.558 125.344 328.814 124.078 329.803 122.792L322.58 109.015L313.019 114.028L309.98 108.232L325.563 100.061L337.759 123.323Z" fill="white"/>
<path d="M273.142 159.158C276.086 157.139 277.92 154.953 278.643 152.602C279.334 150.203 278.831 147.766 277.132 145.289C275.721 143.233 273.975 141.889 271.892 141.256C269.855 140.591 267.342 140.735 264.353 141.686L257.521 143.898C253.232 145.259 249.51 145.442 246.353 144.446C243.164 143.404 240.48 141.294 238.3 138.116C236.634 135.686 235.594 133.169 235.183 130.566C234.818 127.93 235.286 125.307 236.588 122.696C237.936 120.053 240.339 117.546 243.797 115.174C245.9 113.732 248.249 112.498 250.845 111.474C253.408 110.403 256.204 109.619 259.231 109.123L260.874 115.727C257.958 116.284 255.444 116.977 253.333 117.807C251.237 118.557 249.371 119.494 247.736 120.615C245.072 122.443 243.377 124.43 242.651 126.577C241.94 128.645 242.449 130.941 244.18 133.465C245.43 135.287 246.979 136.493 248.825 137.081C250.64 137.623 253.082 137.426 256.15 136.489L262.982 134.277C271.527 131.508 278.188 133.605 282.964 140.568C285.72 144.586 286.749 148.691 286.05 152.881C285.319 157.025 282.266 160.939 276.892 164.625C274.696 166.132 272.183 167.478 269.354 168.662C266.539 169.768 263.423 170.635 260.004 171.261L258.339 164.776C261.585 164.199 264.35 163.471 266.633 162.592C268.963 161.681 271.132 160.536 273.142 159.158Z" fill="white"/>
<path d="M247.402 176.646L251.898 181.859L227.44 202.956L189.688 159.188L213.503 138.646L218.056 143.924L199.84 159.635L211.665 173.345L227.95 159.299L232.502 164.577L216.218 178.623L228.543 192.912L247.402 176.646Z" fill="white"/>
<path d="M146.17 196.943L150.79 191.725L211.444 245.418L206.824 250.637L146.17 196.943Z" fill="white"/>
<path d="M153.825 280.99C155.819 278.029 156.72 275.322 156.528 272.869C156.288 270.385 154.923 268.304 152.432 266.626C150.364 265.233 148.245 264.625 146.076 264.804C143.938 264.935 141.654 265.993 139.224 267.977L133.685 272.547C130.198 275.391 126.804 276.931 123.502 277.166C120.153 277.37 116.881 276.396 113.685 274.243C111.241 272.597 109.349 270.639 108.008 268.369C106.699 266.052 106.17 263.441 106.419 260.534C106.701 257.581 108.013 254.365 110.356 250.888C111.78 248.773 113.511 246.761 115.548 244.854C117.537 242.915 119.848 241.158 122.48 239.583L126.438 245.118C123.931 246.709 121.849 248.279 120.192 249.827C118.519 251.296 117.128 252.853 116.02 254.498C114.215 257.177 113.37 259.648 113.485 261.912C113.585 264.097 114.904 266.045 117.441 267.754C119.274 268.989 121.158 269.54 123.091 269.408C124.978 269.244 127.176 268.163 129.685 266.163L135.223 261.592C142.15 255.873 149.115 255.373 156.118 260.09C160.16 262.812 162.626 266.251 163.518 270.404C164.362 274.526 162.964 279.289 159.324 284.694C157.836 286.903 155.994 289.079 153.799 291.221C151.589 293.285 149.01 295.237 146.062 297.078L142.127 291.66C144.933 289.929 147.236 288.235 149.036 286.578C150.867 284.873 152.463 283.011 153.825 280.99Z" fill="white"/>
<path d="M128.902 323.268C130.566 320.11 131.171 317.322 130.715 314.904C130.21 312.46 128.628 310.538 125.971 309.137C123.766 307.975 121.594 307.599 119.456 308.01C117.344 308.371 115.187 309.668 112.985 311.902L107.971 317.042C104.81 320.245 101.601 322.141 98.3439 322.731C95.0367 323.294 91.6785 322.677 88.2695 320.881C85.6626 319.507 83.5706 317.764 81.9933 315.652C80.4425 313.49 79.6348 310.951 79.5703 308.034C79.5321 305.068 80.4905 301.729 82.4453 298.02C83.634 295.764 85.1381 293.578 86.9576 291.462C88.7269 289.32 90.8353 287.324 93.2828 285.475L97.8132 290.553C95.4924 292.404 93.5913 294.189 92.1099 295.906C90.6047 297.547 89.3898 299.245 88.4653 301C86.9595 303.857 86.3856 306.405 86.7434 308.643C87.0775 310.805 88.5982 312.599 91.3053 314.026C93.2605 315.056 95.1923 315.401 97.1006 315.062C98.9588 314.696 101.027 313.384 103.306 311.126L108.32 305.986C114.592 299.554 121.462 298.307 128.932 302.243C133.243 304.514 136.066 307.667 137.399 311.7C138.683 315.707 137.805 320.594 134.767 326.359C133.526 328.715 131.929 331.076 129.978 333.443C128.003 335.733 125.649 337.951 122.916 340.098L118.421 335.135C121.024 333.112 123.131 331.18 124.742 329.339C126.379 327.447 127.766 325.424 128.902 323.268Z" fill="white"/>
<path d="M114.273 350.734L120.68 353.252L108.866 383.314L55.0714 362.173L66.5746 332.902L73.0616 335.451L64.2632 357.84L81.1137 364.462L88.9794 344.447L95.4664 346.996L87.6008 367.011L105.163 373.913L114.273 350.734Z" fill="white"/>
<path d="M91.2285 446.841L35.1447 432.861L37.0156 425.356C45.4108 422.134 53.7582 419.338 62.0578 416.969C70.3161 414.53 78.8357 412.449 87.6168 410.725L65.9674 406.205L43.204 400.53L44.9515 393.52L101.035 407.5L99.1644 415.006C90.1773 416.853 81.3758 418.893 72.7601 421.126C64.103 423.289 55.5425 425.886 47.0784 428.915L70.0477 434.115L92.976 439.831L91.2285 446.841Z" fill="white"/>
<path d="M88.1564 468.467L87.1335 475.791L29.8891 467.796L30.9121 460.472L88.1564 468.467Z" fill="white"/>
<path d="M78.2129 511.762C78.4017 508.197 77.783 505.413 76.357 503.408C74.8744 501.4 72.6336 500.317 69.6344 500.158C67.1446 500.026 65.0149 500.594 63.2454 501.862C61.4789 503.074 60.0635 505.155 58.9993 508.107L56.5982 514.874C55.069 519.106 52.949 522.171 50.2381 524.071C47.4707 525.967 44.163 526.813 40.315 526.61C37.3725 526.454 34.7428 525.747 32.4261 524.49C30.1123 523.176 28.3155 521.208 27.0356 518.587C25.7587 515.909 25.2311 512.476 25.4528 508.288C25.5876 505.742 26.0382 503.127 26.8044 500.444C27.5141 497.758 28.5931 495.063 30.0414 492.359L36.2816 495.072C34.9495 497.726 33.9704 500.142 33.3443 502.322C32.6646 504.443 32.2723 506.493 32.1674 508.474C31.9967 511.699 32.5424 514.253 33.8046 516.136C35.0133 517.959 37.1455 518.951 40.2012 519.113C42.4081 519.23 44.3069 518.735 45.8977 517.627C47.4319 516.517 48.7609 514.459 49.8846 511.454L52.2857 504.687C55.2875 496.22 61.0042 492.21 69.4357 492.657C74.3022 492.914 78.1855 494.595 81.0854 497.7C83.9288 500.801 85.1782 505.605 84.8337 512.113C84.6929 514.773 84.2319 517.585 83.4506 520.552C82.6158 523.458 81.4072 526.459 79.8247 529.553L73.6648 526.928C75.1817 524.001 76.286 521.364 76.9777 519.017C77.6724 516.614 78.0841 514.196 78.2129 511.762Z" fill="white"/>
<path d="M78.5691 560.839C78.373 557.274 77.4582 554.572 75.8247 552.732C74.1346 550.896 71.7902 550.06 68.7914 550.225C66.3018 550.362 64.2457 551.156 62.6229 552.607C60.9971 554.002 59.814 556.224 59.0737 559.272L57.4149 566.259C56.3501 570.631 54.5724 573.907 52.0817 576.087C49.5344 578.27 46.3371 579.467 42.4895 579.679C39.5473 579.841 36.8569 579.421 34.4182 578.421C31.9765 577.363 29.9783 575.6 28.4237 573.132C26.866 570.607 25.9719 567.251 25.7416 563.064C25.6015 560.518 25.768 557.87 26.241 555.12C26.6574 552.373 27.44 549.577 28.5889 546.733L35.085 548.759C34.0462 551.54 33.3329 554.048 32.945 556.283C32.4975 558.464 32.3282 560.545 32.4371 562.525C32.6146 565.751 33.432 568.231 34.8896 569.967C36.2875 571.649 38.5141 572.407 41.5694 572.238C43.7761 572.117 45.6106 571.42 47.0729 570.148C48.4787 568.879 49.5784 566.69 50.3722 563.582L52.031 556.595C54.104 547.855 59.3558 543.253 67.7864 542.789C72.6524 542.521 76.694 543.774 79.9112 546.549C83.0719 549.326 84.8312 553.968 85.1891 560.475C85.3354 563.134 85.1799 565.98 84.7224 569.013C84.2053 571.993 83.3267 575.106 82.0864 578.352L75.6799 576.406C76.8728 573.333 77.6869 570.592 78.122 568.185C78.5539 565.72 78.703 563.272 78.5691 560.839Z" fill="white"/>
<path d="M37.697 644.927L36.3428 637.397L72.8176 630.837C77.3908 630.015 80.7897 628.424 83.0141 626.067C85.2286 623.653 85.9696 620.411 85.2374 616.34C84.4951 612.212 82.6706 609.431 79.7641 607.997C76.8575 606.562 73.1176 606.256 68.5443 607.078L32.0696 613.639L30.7154 606.109L67.1901 599.549C73.8269 598.355 79.3325 599.035 83.7068 601.588C88.0253 604.15 90.7664 608.666 91.93 615.136C93.1036 621.661 92.113 626.877 88.9581 630.784C85.7374 634.645 80.8086 637.173 74.1718 638.366L37.697 644.927Z" fill="white"/>
<path d="M110.434 687.334L55.3779 704.933L50.2018 688.74C48.5109 683.45 48.5641 679.15 50.3613 675.839C52.0873 672.491 55.1093 670.127 59.4274 668.747L61.2086 668.178C63.5835 667.418 65.8612 667.285 68.0414 667.778C70.2217 668.271 72.1794 669.371 73.9145 671.077C73.9177 667.923 74.7389 665.28 76.3781 663.15C77.9461 660.983 80.1875 659.434 83.1022 658.502L84.8834 657.933C89.3094 656.518 93.2859 656.675 96.8129 658.403C100.269 660.094 102.868 663.666 104.61 669.117L110.434 687.334ZM56.6789 686.67L59.6034 695.819L77.0107 690.254L74.0862 681.105C73.2236 678.407 71.9018 676.598 70.1211 675.68C68.2691 674.725 66.1287 674.636 63.6998 675.413L61.7566 676.034C59.3817 676.793 57.7438 678.09 56.843 679.925C55.8709 681.723 55.8163 683.971 56.6789 686.67ZM79.9164 677.011L83.4879 688.184L101.786 682.335L98.2143 671.162C97.2998 668.301 95.8897 666.402 93.9837 665.465C92.0605 664.473 89.8035 664.391 87.2126 665.22L85.2695 665.841C82.7866 666.634 81.0494 667.993 80.0579 669.916C79.0491 671.785 79.0019 674.15 79.9164 677.011Z" fill="white"/>
<path d="M123.26 728.105C124.977 729.061 127.022 730.645 129.395 732.856C131.743 735.017 133.903 737.979 135.875 741.744C138.005 745.81 138.953 749.695 138.719 753.4C138.408 757.081 137.078 760.465 134.729 763.551C132.303 766.613 129.032 769.222 124.916 771.379L113.697 777.256C107.272 780.622 101.386 781.658 96.0383 780.366C90.6146 779.049 86.2855 775.303 83.051 769.129C81.8677 766.87 80.8828 764.38 80.0962 761.657C79.2833 758.884 78.8099 755.966 78.6759 752.901L85.4274 752.051C85.9368 757.542 87.1645 762.144 89.1104 765.859C91.2667 769.975 94.1388 772.405 97.7267 773.148C101.238 773.867 105.378 772.978 110.147 770.48L121.366 764.602C125.883 762.236 128.933 759.326 130.515 755.875C132.098 752.423 131.797 748.614 129.615 744.448C128.773 742.842 127.743 741.302 126.524 739.83C125.278 738.307 124.013 737.051 122.727 736.062L108.948 743.28L113.957 752.842L108.16 755.879L99.9947 740.294L123.26 728.105Z" fill="white"/>
<path d="M159.073 792.735C157.055 789.79 154.87 787.956 152.519 787.231C150.121 786.539 147.683 787.042 145.206 788.74C143.15 790.15 141.805 791.896 141.171 793.979C140.506 796.015 140.648 798.528 141.598 801.518L143.808 808.35C145.168 812.639 145.349 816.362 144.353 819.519C143.309 822.707 141.198 825.39 138.02 827.569C135.589 829.235 133.072 830.273 130.468 830.684C127.832 831.048 125.209 830.579 122.599 829.276C119.957 827.927 117.45 825.523 115.079 822.064C113.638 819.961 112.405 817.611 111.382 815.015C110.311 812.451 109.529 809.656 109.034 806.629L115.638 804.988C116.194 807.904 116.887 810.418 117.715 812.529C118.465 814.626 119.401 816.492 120.522 818.128C122.348 820.792 124.335 822.487 126.482 823.214C128.55 823.926 130.846 823.418 133.37 821.688C135.193 820.438 136.399 818.89 136.988 817.043C137.531 815.229 137.334 812.787 136.399 809.719L134.189 802.886C131.423 794.34 133.522 787.68 140.486 782.907C144.506 780.151 148.611 779.124 152.801 779.825C156.944 780.557 160.858 783.611 164.542 788.986C166.048 791.183 167.393 793.696 168.577 796.526C169.682 799.341 170.547 802.458 171.172 805.876L164.687 807.539C164.11 804.293 163.383 801.528 162.505 799.245C161.595 796.915 160.451 794.745 159.073 792.735Z" fill="white"/>
<path d="M176.552 818.481L181.768 813.986L202.856 838.452L159.074 876.188L138.541 852.366L143.821 847.816L159.526 866.036L173.24 854.216L159.199 837.927L164.479 833.376L178.519 849.665L192.812 837.346L176.552 818.481Z" fill="white"/>
<path d="M196.815 919.719L191.598 915.098L245.312 854.463L250.529 859.085L196.815 919.719Z" fill="white"/>
<path d="M280.864 912.094C277.904 910.098 275.198 909.197 272.745 909.388C270.26 909.627 268.179 910.991 266.5 913.482C265.106 915.549 264.498 917.668 264.675 919.838C264.806 921.976 265.863 924.26 267.846 926.691L272.415 932.231C275.257 935.719 276.796 939.114 277.03 942.415C277.233 945.764 276.257 949.036 274.104 952.231C272.456 954.674 270.498 956.566 268.228 957.906C265.911 959.214 263.299 959.743 260.393 959.492C257.439 959.21 254.224 957.897 250.747 955.553C248.633 954.127 246.622 952.396 244.715 950.359C242.776 948.368 241.02 946.057 239.446 943.424L244.983 939.468C246.574 941.976 248.142 944.058 249.69 945.716C251.159 947.39 252.715 948.781 254.36 949.89C257.038 951.695 259.509 952.541 261.773 952.427C263.958 952.328 265.906 951.01 267.616 948.473C268.852 946.64 269.403 944.757 269.272 942.823C269.109 940.936 268.028 938.738 266.029 936.229L261.46 930.689C255.744 923.76 255.245 916.795 259.965 909.794C262.689 905.753 266.128 903.287 270.282 902.397C274.404 901.554 279.167 902.954 284.57 906.597C286.779 908.085 288.954 909.927 291.096 912.123C293.159 914.334 295.11 916.914 296.95 919.862L291.531 923.795C289.8 920.989 288.107 918.685 286.45 916.885C284.747 915.053 282.885 913.456 280.864 912.094Z" fill="white"/>
<path d="M323.134 937.032C319.976 935.366 317.188 934.761 314.77 935.215C312.326 935.72 310.403 937.301 309.002 939.957C307.839 942.163 307.463 944.335 307.873 946.473C308.233 948.584 309.529 950.742 311.763 952.945L316.901 957.961C320.103 961.123 321.998 964.332 322.586 967.589C323.148 970.897 322.53 974.255 320.733 977.663C319.358 980.27 317.615 982.361 315.502 983.938C313.339 985.488 310.8 986.294 307.883 986.358C304.917 986.395 301.579 985.436 297.87 983.48C295.614 982.29 293.429 980.785 291.314 978.965C289.172 977.195 287.177 975.086 285.329 972.638L290.408 968.109C292.259 970.431 294.043 972.332 295.76 973.814C297.4 975.32 299.097 976.535 300.852 977.461C303.709 978.967 306.256 979.542 308.495 979.185C310.657 978.852 312.451 977.332 313.879 974.625C314.91 972.67 315.256 970.739 314.917 968.83C314.551 966.972 313.24 964.903 310.983 962.623L305.844 957.607C299.415 951.334 298.17 944.463 302.109 936.994C304.382 932.684 307.535 929.862 311.569 928.53C315.577 927.248 320.463 928.127 326.227 931.167C328.583 932.41 330.943 934.007 333.309 935.959C335.598 937.935 337.816 940.29 339.962 943.023L334.998 947.517C332.976 944.913 331.044 942.805 329.203 941.193C327.312 939.556 325.289 938.168 323.134 937.032Z" fill="white"/>
<path d="M350.595 951.67L353.115 945.263L383.173 957.087L362.014 1010.87L332.747 999.362L335.298 992.876L357.683 1001.68L364.311 984.833L344.299 976.961L346.851 970.475L366.863 978.347L373.771 960.787L350.595 951.67Z" fill="white"/>
<path d="M446.694 974.748L432.694 1030.83L425.19 1028.95C421.971 1020.56 419.178 1012.21 416.811 1003.91C414.376 995.649 412.298 987.129 410.577 978.347L406.049 999.995L400.366 1022.76L393.356 1021.01L407.356 964.927L414.861 966.801C416.705 975.788 418.743 984.591 420.972 993.207C423.133 1001.86 425.726 1010.43 428.753 1018.89L433.961 995.924L439.684 972.998L446.694 974.748Z" fill="white"/>
<path d="M468.319 977.827L475.642 978.852L467.627 1036.09L460.304 1035.07L468.319 977.827Z" fill="white"/>
<path d="M511.611 987.785C508.046 987.595 505.261 988.213 503.256 989.638C501.247 991.12 500.163 993.361 500.003 996.36C499.871 998.85 500.438 1000.98 501.706 1002.75C502.917 1004.52 504.998 1005.93 507.948 1007L514.715 1009.4C518.946 1010.93 522.011 1013.05 523.91 1015.76C525.805 1018.53 526.65 1021.84 526.445 1025.69C526.288 1028.63 525.581 1031.26 524.322 1033.58C523.007 1035.89 521.039 1037.69 518.417 1038.96C515.739 1040.24 512.306 1040.77 508.119 1040.54C505.572 1040.41 502.958 1039.96 500.275 1039.19C497.589 1038.48 494.894 1037.4 492.191 1035.95L494.906 1029.71C497.559 1031.04 499.976 1032.02 502.155 1032.65C504.275 1033.33 506.326 1033.72 508.306 1033.83C511.532 1034 514.086 1033.46 515.969 1032.2C517.793 1030.99 518.786 1028.86 518.949 1025.8C519.066 1023.59 518.572 1021.69 517.465 1020.1C516.355 1018.57 514.298 1017.24 511.293 1016.11L504.526 1013.71C496.061 1010.71 492.053 1004.99 492.502 996.556C492.761 991.689 494.444 987.807 497.549 984.908C500.651 982.066 505.456 980.818 511.964 981.165C514.623 981.306 517.436 981.768 520.402 982.551C523.308 983.386 526.308 984.596 529.402 986.18L526.775 992.339C523.848 990.821 521.212 989.715 518.865 989.023C516.462 988.327 514.044 987.915 511.611 987.785Z" fill="white"/>
<path d="M560.687 987.446C557.123 987.641 554.42 988.554 552.58 990.187C550.743 991.877 549.906 994.221 550.07 997.22C550.206 999.709 551 1001.77 552.45 1003.39C553.844 1005.02 556.066 1006.2 559.114 1006.94L566.1 1008.6C570.472 1009.67 573.747 1011.45 575.926 1013.94C578.108 1016.49 579.305 1019.68 579.515 1023.53C579.676 1026.47 579.256 1029.16 578.254 1031.6C577.195 1034.04 575.432 1036.04 572.963 1037.6C570.438 1039.15 567.081 1040.05 562.894 1040.27C560.348 1040.41 557.7 1040.25 554.95 1039.77C552.203 1039.35 549.408 1038.57 546.564 1037.42L548.593 1030.93C551.374 1031.97 553.881 1032.68 556.116 1033.07C558.297 1033.52 560.378 1033.69 562.358 1033.58C565.583 1033.4 568.064 1032.59 569.8 1031.13C571.483 1029.73 572.241 1027.5 572.074 1024.45C571.953 1022.24 571.257 1020.41 569.986 1018.95C568.717 1017.54 566.529 1016.44 563.421 1015.64L556.434 1013.98C547.695 1011.91 543.094 1006.65 542.634 998.222C542.368 993.356 543.622 989.315 546.397 986.099C549.176 982.939 553.818 981.181 560.325 980.826C562.985 980.68 565.831 980.837 568.864 981.295C571.843 981.813 574.956 982.693 578.202 983.934L576.253 990.34C573.18 989.146 570.44 988.331 568.033 987.895C565.569 987.463 563.12 987.313 560.687 987.446Z" fill="white"/>
<path d="M644.761 1028.35L637.231 1029.7L630.684 993.221C629.863 988.648 628.274 985.248 625.917 983.023C623.504 980.808 620.262 980.066 616.19 980.796C612.063 981.537 609.281 983.361 607.846 986.267C606.41 989.173 606.102 992.913 606.923 997.486L613.471 1033.96L605.942 1035.31L599.394 998.838C598.202 992.201 598.884 986.695 601.438 982.322C604.002 978.004 608.519 975.265 614.989 974.103C621.515 972.932 626.73 973.924 630.636 977.081C634.496 980.303 637.022 985.232 638.213 991.87L644.761 1028.35Z" fill="white"/>
<path d="M687.194 955.625L704.773 1010.69L688.579 1015.86C683.288 1017.55 678.988 1017.49 675.678 1015.69C672.33 1013.97 669.967 1010.94 668.589 1006.62L668.02 1004.84C667.262 1002.47 667.129 1000.19 667.623 998.011C668.117 995.83 669.217 993.873 670.923 992.139C667.769 992.134 665.127 991.312 662.998 989.672C660.831 988.103 659.283 985.862 658.352 982.947L657.783 981.165C656.37 976.739 656.528 972.762 658.257 969.236C659.95 965.781 663.522 963.183 668.975 961.442L687.194 955.625ZM686.511 1009.38L695.66 1006.46L690.102 989.049L680.952 991.97C678.253 992.832 676.444 994.153 675.526 995.934C674.57 997.785 674.48 999.926 675.256 1002.35L675.876 1004.3C676.635 1006.67 677.931 1008.31 679.765 1009.21C681.563 1010.19 683.811 1010.24 686.511 1009.38ZM676.86 986.139L688.034 982.571L682.191 964.271L671.017 967.839C668.156 968.752 666.256 970.162 665.318 972.067C664.326 973.99 664.244 976.247 665.071 978.838L665.691 980.782C666.484 983.265 667.842 985.003 669.765 985.995C671.634 987.004 673.999 987.052 676.86 986.139Z" fill="white"/>
<path d="M727.969 942.812C728.926 941.096 730.51 939.052 732.722 936.679C734.883 934.332 737.847 932.173 741.612 930.202C745.679 928.074 749.564 927.127 753.269 927.362C756.95 927.674 760.334 929.006 763.419 931.356C766.48 933.783 769.088 937.055 771.243 941.172L777.116 952.393C780.48 958.819 781.515 964.705 780.22 970.052C778.901 975.476 775.154 979.803 768.979 983.036C766.72 984.218 764.229 985.202 761.506 985.988C758.733 986.8 755.814 987.272 752.75 987.405L751.902 980.653C757.393 980.146 761.996 978.92 765.711 976.975C769.828 974.82 772.258 971.949 773.003 968.361C773.723 964.85 772.835 960.71 770.339 955.94L764.465 944.72C762.1 940.201 759.192 937.15 755.741 935.567C752.29 933.983 748.481 934.282 744.314 936.463C742.707 937.304 741.167 938.334 739.695 939.553C738.172 940.798 736.915 942.063 735.925 943.349L743.139 957.13L752.703 952.124L755.738 957.922L740.149 966.082L727.969 942.812Z" fill="white"/>
<path d="M792.611 907.021C789.666 909.038 787.831 911.223 787.106 913.574C786.413 915.971 786.915 918.409 788.612 920.887C790.021 922.944 791.766 924.29 793.849 924.924C795.885 925.59 798.398 925.448 801.388 924.499L808.222 922.292C812.511 920.934 816.234 920.753 819.39 921.751C822.578 922.796 825.261 924.908 827.438 928.087C829.103 930.518 830.141 933.035 830.551 935.639C830.914 938.276 830.444 940.898 829.14 943.508C827.79 946.15 825.385 948.656 821.926 951.025C819.822 952.466 817.472 953.698 814.875 954.721C812.311 955.79 809.515 956.572 806.488 957.065L804.849 950.461C807.766 949.906 810.28 949.214 812.391 948.386C814.488 947.637 816.355 946.702 817.991 945.581C820.656 943.756 822.352 941.77 823.08 939.623C823.792 937.555 823.284 935.259 821.555 932.734C820.306 930.911 818.759 929.704 816.912 929.115C815.098 928.571 812.656 928.767 809.587 929.701L802.754 931.909C794.207 934.672 787.548 932.571 782.777 925.605C780.023 921.584 778.997 917.479 779.699 913.289C780.433 909.146 783.488 905.233 788.865 901.551C791.062 900.046 793.576 898.702 796.406 897.519C799.221 896.415 802.338 895.551 805.757 894.927L807.418 901.413C804.171 901.988 801.406 902.714 799.123 903.592C796.792 904.501 794.622 905.644 792.611 907.021Z" fill="white"/>
<path d="M818.363 889.551L813.87 884.335L838.343 863.255L876.065 907.049L852.235 927.574L847.687 922.293L865.913 906.594L854.097 892.876L837.803 906.911L833.254 901.63L849.548 887.595L837.233 873.298L818.363 889.551Z" fill="white"/>
<path d="M919.609 869.324L914.985 874.539L854.369 820.804L858.992 815.588L919.609 869.324Z" fill="white"/>
<path d="M912.012 785.272C910.015 788.231 909.112 790.937 909.303 793.39C909.541 795.875 910.905 797.957 913.395 799.637C915.462 801.031 917.58 801.64 919.75 801.463C921.888 801.334 924.173 800.277 926.604 798.295L932.146 793.728C935.635 790.887 939.03 789.35 942.332 789.116C945.681 788.915 948.952 789.891 952.147 792.046C954.589 793.694 956.48 795.654 957.82 797.924C959.127 800.242 959.655 802.854 959.403 805.76C959.12 808.713 957.805 811.928 955.46 815.404C954.034 817.518 952.302 819.528 950.264 821.434C948.273 823.372 945.961 825.127 943.328 826.7L939.374 821.162C941.882 819.573 943.965 818.005 945.624 816.458C947.298 814.99 948.689 813.434 949.798 811.789C951.605 809.112 952.451 806.641 952.338 804.377C952.24 802.192 950.923 800.244 948.386 798.532C946.554 797.296 944.671 796.744 942.737 796.875C940.85 797.037 938.652 798.117 936.142 800.115L930.6 804.682C923.669 810.396 916.704 810.892 909.705 806.17C905.665 803.445 903.2 800.005 902.312 795.851C901.47 791.728 902.871 786.966 906.516 781.564C908.005 779.356 909.848 777.182 912.045 775.04C914.256 772.978 916.837 771.028 919.786 769.189L923.717 774.609C920.91 776.339 918.606 778.031 916.805 779.687C914.972 781.39 913.375 783.252 912.012 785.272Z" fill="white"/>
<path d="M936.964 743.011C935.297 746.168 934.691 748.955 935.145 751.373C935.649 753.818 937.229 755.741 939.885 757.143C942.09 758.307 944.261 758.684 946.4 758.275C948.512 757.916 950.669 756.62 952.873 754.387L957.891 749.251C961.054 746.05 964.264 744.156 967.522 743.569C970.829 743.008 974.187 743.627 977.595 745.426C980.201 746.801 982.292 748.545 983.867 750.659C985.417 752.822 986.223 755.362 986.285 758.278C986.321 761.245 985.361 764.582 983.403 768.291C982.213 770.546 980.707 772.731 978.886 774.845C977.116 776.986 975.006 778.98 972.557 780.828L968.03 775.747C970.352 773.897 972.255 772.114 973.737 770.397C975.243 768.758 976.459 767.061 977.385 765.307C978.893 762.45 979.469 759.903 979.112 757.664C978.78 755.502 977.26 753.707 974.554 752.279C972.6 751.247 970.668 750.901 968.76 751.239C966.901 751.603 964.832 752.914 962.552 755.17L957.534 760.307C951.258 766.734 944.386 767.977 936.919 764.036C932.61 761.761 929.789 758.607 928.459 754.572C927.178 750.564 928.059 745.679 931.101 739.916C932.344 737.56 933.942 735.2 935.895 732.835C937.872 730.547 940.227 728.33 942.962 726.185L947.453 731.15C944.848 733.172 942.74 735.102 941.128 736.943C939.489 738.833 938.101 740.856 936.964 743.011Z" fill="white"/>
<path d="M951.612 715.555L945.206 713.032L957.041 682.979L1010.82 704.157L999.298 733.42L992.812 730.866L1001.63 708.484L984.78 701.85L976.901 721.859L970.416 719.306L978.295 699.296L960.737 692.382L951.612 715.555Z" fill="white"/>
<path d="M974.722 619.464L1030.8 633.483L1028.92 640.987C1020.52 644.203 1012.17 646.993 1003.87 649.357C995.613 651.789 987.092 653.864 978.309 655.582L999.956 660.118L1022.72 665.808L1020.96 672.817L964.889 658.798L966.765 651.294C975.753 649.453 984.556 647.419 993.173 645.192C1001.83 643.035 1010.39 640.444 1018.86 637.42L995.895 632.205L972.97 626.473L974.722 619.464Z" fill="white"/>
<path d="M977.81 597.84L978.838 590.517L1036.08 598.552L1035.05 605.875L977.81 597.84Z" fill="white"/>
<path d="M987.783 554.551C987.592 558.116 988.208 560.902 989.633 562.907C991.114 564.916 993.354 566.001 996.353 566.162C998.843 566.295 1000.97 565.729 1002.74 564.462C1004.51 563.251 1005.93 561.171 1006.99 558.22L1009.4 551.455C1010.93 547.224 1013.05 544.16 1015.77 542.262C1018.53 540.368 1021.84 539.524 1025.69 539.73C1028.63 539.888 1031.26 540.596 1033.58 541.856C1035.89 543.171 1037.69 545.14 1038.96 547.763C1040.24 550.441 1040.77 553.874 1040.54 558.062C1040.4 560.608 1039.95 563.223 1039.18 565.905C1038.47 568.591 1037.39 571.285 1035.94 573.988L1029.7 571.27C1031.04 568.618 1032.02 566.202 1032.65 564.022C1033.33 561.903 1033.72 559.852 1033.83 557.872C1034 554.646 1033.46 552.092 1032.19 550.208C1030.99 548.385 1028.86 547.391 1025.8 547.227C1023.59 547.108 1021.69 547.602 1020.1 548.709C1018.57 549.818 1017.24 551.875 1016.11 554.879L1013.71 561.645C1010.7 570.109 1004.98 574.115 996.547 573.663C991.681 573.402 987.799 571.718 984.901 568.612C982.06 565.509 980.813 560.704 981.162 554.196C981.305 551.537 981.768 548.724 982.551 545.759C983.388 542.853 984.599 539.853 986.183 536.76L992.341 539.389C990.823 542.315 989.716 544.951 989.023 547.297C988.327 549.7 987.913 552.118 987.783 554.551Z" fill="white"/>
<path d="M987.46 505.475C987.654 509.039 988.567 511.742 990.199 513.583C991.888 515.421 994.232 516.258 997.231 516.095C999.72 515.96 1001.78 515.167 1003.4 513.717C1005.03 512.323 1006.21 510.103 1006.95 507.054L1008.62 500.069C1009.69 495.698 1011.47 492.423 1013.96 490.245C1016.51 488.063 1019.71 486.868 1023.55 486.659C1026.5 486.499 1029.19 486.921 1031.62 487.923C1034.06 488.982 1036.06 490.747 1037.61 493.216C1039.17 495.742 1040.06 499.099 1040.29 503.286C1040.43 505.832 1040.26 508.48 1039.78 511.23C1039.37 513.977 1038.58 516.772 1037.43 519.615L1030.94 517.584C1031.98 514.804 1032.69 512.296 1033.08 510.062C1033.53 507.881 1033.7 505.8 1033.59 503.82C1033.42 500.595 1032.6 498.113 1031.15 496.377C1029.75 494.693 1027.52 493.934 1024.47 494.1C1022.26 494.22 1020.43 494.916 1018.96 496.187C1017.56 497.455 1016.45 499.643 1015.66 502.751L1014 509.737C1011.92 518.475 1006.66 523.074 998.231 523.532C993.364 523.796 989.324 522.54 986.108 519.764C982.95 516.984 981.193 512.341 980.84 505.834C980.696 503.175 980.853 500.329 981.313 497.296C981.832 494.317 982.713 491.204 983.955 487.959L990.36 489.909C989.165 492.982 988.349 495.722 987.913 498.129C987.479 500.593 987.328 503.041 987.46 505.475Z" fill="white"/>
<path d="M1028.39 421.415L1029.74 428.945L993.26 435.48C988.686 436.3 985.286 437.887 983.06 440.244C980.844 442.656 980.101 445.897 980.83 449.969C981.57 454.097 983.392 456.879 986.298 458.316C989.203 459.753 992.943 460.061 997.517 459.242L1034 452.707L1035.35 460.237L998.866 466.772C992.228 467.961 986.723 467.278 982.351 464.722C978.034 462.157 975.296 457.639 974.137 451.168C972.968 444.642 973.962 439.427 977.12 435.522C980.343 431.663 985.273 429.139 991.911 427.95L1028.39 421.415Z" fill="white"/>
<path d="M955.683 378.957L1010.75 361.397L1015.92 377.593C1017.6 382.884 1017.55 387.184 1015.75 390.494C1014.02 393.841 1011 396.203 1006.68 397.58L1004.9 398.148C1002.52 398.906 1000.24 399.037 998.062 398.543C995.882 398.048 993.925 396.947 992.191 395.24C992.186 398.394 991.363 401.036 989.722 403.165C988.153 405.331 985.91 406.879 982.995 407.808L981.213 408.376C976.786 409.788 972.81 409.629 969.284 407.898C965.829 406.204 963.233 402.631 961.494 397.178L955.683 378.957ZM1009.44 379.659L1006.52 370.508L989.108 376.06L992.026 385.211C992.887 387.911 994.208 389.72 995.988 390.639C997.839 391.595 999.979 391.686 1002.41 390.911L1004.35 390.291C1006.73 389.534 1008.37 388.238 1009.27 386.404C1010.24 384.607 1010.3 382.358 1009.44 379.659ZM986.193 389.302L982.63 378.126L964.328 383.963L967.891 395.138C968.804 397.999 970.213 399.9 972.118 400.838C974.041 401.831 976.298 401.915 978.889 401.088L980.833 400.468C983.316 399.676 985.054 398.319 986.047 396.397C987.057 394.528 987.106 392.163 986.193 389.302Z" fill="white"/>
<path d="M942.884 338.178C941.169 337.22 939.125 335.636 936.753 333.423C934.407 331.261 932.249 328.296 930.279 324.53C928.152 320.463 927.207 316.577 927.443 312.872C927.756 309.191 929.089 305.808 931.44 302.724C933.869 299.664 937.141 297.057 941.259 294.903L952.482 289.034C958.909 285.672 964.796 284.64 970.142 285.936C975.565 287.257 979.892 291.005 983.122 297.181C984.304 299.441 985.287 301.932 986.072 304.656C986.883 307.429 987.354 310.348 987.486 313.412L980.734 314.258C980.228 308.767 979.004 304.163 977.06 300.448C974.907 296.33 972.036 293.898 968.449 293.153C964.938 292.431 960.797 293.318 956.027 295.812L944.804 301.682C940.285 304.046 937.233 306.953 935.649 310.403C934.064 313.854 934.361 317.663 936.541 321.831C937.382 323.438 938.411 324.978 939.629 326.451C940.873 327.974 942.138 329.231 943.424 330.222L957.207 323.013L952.204 313.447L958.004 310.414L966.158 326.005L942.884 338.178Z" fill="white"/>
<path d="M907.116 273.523C909.132 276.469 911.316 278.305 913.666 279.031C916.064 279.725 918.502 279.224 920.98 277.527C923.038 276.119 924.384 274.374 925.019 272.291C925.686 270.256 925.545 267.743 924.597 264.752L922.392 257.918C921.035 253.628 920.856 249.905 921.855 246.749C922.901 243.562 925.014 240.88 928.194 238.703C930.625 237.039 933.143 236.003 935.747 235.594C938.383 235.231 941.006 235.702 943.616 237.007C946.257 238.358 948.762 240.763 951.13 244.224C952.57 246.328 953.801 248.679 954.823 251.275C955.892 253.84 956.672 256.636 957.165 259.664L950.56 261.3C950.006 258.384 949.315 255.869 948.488 253.757C947.739 251.66 946.805 249.794 945.685 248.157C943.86 245.491 941.875 243.794 939.728 243.066C937.661 242.353 935.364 242.86 932.839 244.588C931.015 245.836 929.808 247.383 929.218 249.23C928.674 251.044 928.869 253.486 929.802 256.555L932.007 263.389C934.767 271.937 932.664 278.595 925.696 283.364C921.674 286.117 917.569 287.141 913.379 286.438C909.237 285.702 905.325 282.646 901.645 277.268C900.14 275.07 898.797 272.556 897.615 269.725C896.512 266.91 895.649 263.792 895.026 260.373L901.513 258.715C902.087 261.961 902.812 264.727 903.689 267.011C904.597 269.342 905.74 271.512 907.116 273.523Z" fill="white"/>
<path d="M889.655 247.765L884.437 252.256L863.365 227.776L907.172 190.069L927.689 213.906L922.407 218.453L906.714 200.221L892.992 212.032L907.021 228.331L901.738 232.878L887.709 216.579L873.408 228.889L889.655 247.765Z" fill="white"/>
<path d="M869.462 146.513L874.676 151.138L820.92 211.736L815.706 207.11L869.462 146.513Z" fill="white"/>
<path d="M785.407 154.081C788.366 156.078 791.072 156.982 793.525 156.792C796.009 156.555 798.092 155.192 799.772 152.703C801.168 150.636 801.777 148.518 801.601 146.348C801.472 144.21 800.417 141.925 798.435 139.493L793.87 133.95C791.03 130.46 789.494 127.064 789.262 123.762C789.061 120.413 790.039 117.142 792.195 113.948C793.844 111.506 795.804 109.616 798.075 108.277C800.393 106.971 803.005 106.444 805.911 106.696C808.864 106.981 812.079 108.296 815.554 110.643C817.668 112.069 819.677 113.802 821.583 115.841C823.52 117.832 825.275 120.145 826.847 122.779L821.307 126.731C819.718 124.223 818.151 122.139 816.605 120.48C815.137 118.805 813.581 117.413 811.938 116.303C809.261 114.496 806.79 113.648 804.526 113.761C802.341 113.858 800.392 115.175 798.68 117.711C797.444 119.542 796.89 121.425 797.021 123.359C797.182 125.246 798.262 127.445 800.259 129.956L804.824 135.499C810.536 142.432 811.029 149.397 806.305 156.395C803.578 160.434 800.137 162.897 795.983 163.785C791.86 164.625 787.098 163.222 781.697 159.575C779.49 158.085 777.316 156.241 775.176 154.044C773.114 151.832 771.165 149.251 769.327 146.301L774.749 142.372C776.477 145.18 778.169 147.484 779.824 149.286C781.527 151.119 783.388 152.717 785.407 154.081Z" fill="white"/>
<path d="M743.155 129.114C746.311 130.781 749.099 131.389 751.517 130.936C753.962 130.433 755.886 128.853 757.288 126.198C758.453 123.993 758.831 121.822 758.423 119.683C758.064 117.571 756.769 115.413 754.537 113.209L749.402 108.189C746.203 105.025 744.31 101.814 743.724 98.5562C743.164 95.2484 743.784 91.891 745.584 88.4838C746.96 85.8783 748.705 83.7881 750.819 82.213C752.983 80.6644 755.523 79.8594 758.44 79.7978C761.406 79.7627 764.743 80.7245 768.451 82.6832C770.706 83.8743 772.89 85.3806 775.004 87.2023C777.144 88.9738 779.138 91.0843 780.984 93.5336L775.902 98.0588C774.053 95.7361 772.27 93.8331 770.554 92.3499C768.915 90.8431 767.219 89.6265 765.465 88.7001C762.609 87.1914 760.062 86.6148 757.823 86.9703C755.661 87.3022 753.865 88.821 752.436 91.5267C751.404 93.4808 751.056 95.4122 751.394 97.3209C751.758 99.1794 753.068 101.249 755.324 103.53L760.459 108.55C766.883 114.828 768.124 121.7 764.18 129.165C761.904 133.475 758.748 136.294 754.714 137.623C750.705 138.902 745.82 138.02 740.058 134.976C737.703 133.732 735.343 132.133 732.979 130.179C730.691 128.201 728.475 125.845 726.331 123.11L731.298 118.621C733.318 121.226 735.249 123.335 737.088 124.948C738.978 126.587 741 127.976 743.155 129.114Z" fill="white"/>
<path d="M715.704 114.456L713.179 120.862L683.129 109.016L704.326 55.2434L733.585 66.7768L731.029 73.2612L708.65 64.4397L702.01 81.2833L722.017 89.1697L719.461 95.6541L699.454 87.7677L692.534 105.323L715.704 114.456Z" fill="white"/>
<path d="M619.621 91.3127L633.659 35.2434L641.162 37.122C644.375 45.5205 647.162 53.8708 649.523 62.1728C651.953 70.4336 654.025 78.9555 655.74 87.7383L660.283 66.0936L665.981 43.336L672.99 45.0908L658.952 101.16L651.448 99.2815C649.61 90.2924 647.579 81.4889 645.355 72.8708C643.2 64.2115 640.613 55.6483 637.592 47.1812L632.368 70.145L626.629 93.0675L619.621 91.3127Z" fill="white"/>
<path d="M597.998 88.2187L590.675 87.1882L598.73 29.9521L606.052 30.9826L597.998 88.2187Z" fill="white"/>
<path d="M554.713 78.2302C558.278 78.4226 561.063 77.8068 563.07 76.3829C565.079 74.9024 566.165 72.6626 566.326 69.6637C566.461 67.174 565.895 65.0437 564.628 63.2729C563.419 61.5051 561.339 60.0876 558.389 59.0204L551.624 56.6122C547.393 55.0787 544.33 52.9555 542.433 50.2427C540.54 47.4733 539.697 44.1647 539.905 40.3169C540.064 37.3746 540.773 34.7456 542.033 32.4302C543.349 30.1178 545.319 28.323 547.942 27.0458C550.621 25.7717 554.054 25.2477 558.241 25.4737C560.788 25.6111 563.402 26.0643 566.085 26.8334C568.77 27.5458 571.464 28.6276 574.166 30.0787L571.446 36.3161C568.794 34.9813 566.379 33.9996 564.199 33.3713C562.08 32.6894 560.03 32.295 558.049 32.1881C554.824 32.014 552.269 32.5571 550.385 33.8174C548.561 35.0241 547.566 37.1553 547.401 40.2108C547.282 42.4176 547.776 44.317 548.881 45.9089C549.99 47.4442 552.047 48.7753 555.05 49.9022L561.815 52.3103C570.279 55.3208 574.283 61.0416 573.828 69.4727C573.565 74.3389 571.88 78.2204 568.773 81.1172C565.668 83.9573 560.863 85.2018 554.356 84.8505C551.696 84.707 548.884 84.2431 545.918 83.4588C543.013 82.6209 540.013 81.4092 536.921 79.8236L539.552 73.6664C542.477 75.1863 545.113 76.2933 547.459 76.9874C549.862 77.6846 552.28 78.0988 554.713 78.2302Z" fill="white"/>
</svg>
